<?xml version="1.0" encoding="utf-8"?>
<svg width="29px" height="26px" viewBox="0 0 29 26" version="1.1" xmlns:xlink="http://www.w3.org/1999/xlink" xmlns="http://www.w3.org/2000/svg">
  <desc>Created with Lunacy</desc>
  <defs>
    <path d="M1.17287 9.30853L14.2738 9.30853L8.55019 14.5952C8.09277 15.0177 8.09277 15.711 8.55019 16.1335C9.0076 16.556 9.74651 16.556 10.2039 16.1335L17.9331 8.99436C18.3905 8.57186 18.3905 7.88936 17.9331 7.46686L10.2157 0.316859C9.99653 0.114002 9.69903 0 9.38878 0C9.07854 0 8.78104 0.114002 8.56191 0.316859C8.1045 0.739359 8.1045 1.42186 8.56191 1.84436L14.2738 7.14186L1.17287 7.14186C0.527789 7.14186 0 7.62936 0 8.22519C0 8.82103 0.527789 9.30853 1.17287 9.30853Z" transform="translate(4.936295 4.7748)" id="path_1" />
    <clipPath id="mask_1">
      <use xlink:href="#path_1" />
    </clipPath>
  </defs>
  <g id="icon/navigation/arrow_forward_24px">
    <path d="M1.17287 9.30853L14.2738 9.30853L8.55019 14.5952C8.09277 15.0177 8.09277 15.711 8.55019 16.1335C9.0076 16.556 9.74651 16.556 10.2039 16.1335L17.9331 8.99436C18.3905 8.57186 18.3905 7.88936 17.9331 7.46686L10.2157 0.316859C9.99653 0.114002 9.69903 0 9.38878 0C9.07854 0 8.78104 0.114002 8.56191 0.316859C8.1045 0.739359 8.1045 1.42186 8.56191 1.84436L14.2738 7.14186L1.17287 7.14186C0.527789 7.14186 0 7.62936 0 8.22519C0 8.82103 0.527789 9.30853 1.17287 9.30853Z" transform="translate(4.936295 4.7748)" id="icon/navigation/arrow_forward_24px" fill="#FFFFFF" stroke="none" />
  </g>
</svg>