<?xml version="1.0" encoding="utf-8"?>
<svg width="12px" height="21px" viewBox="0 0 12 21" version="1.1" xmlns:xlink="http://www.w3.org/1999/xlink" xmlns="http://www.w3.org/2000/svg">
  <desc>Created with Lunacy</desc>
  <defs>
    <path d="M2.57891 20.4514L6.88452 20.4514L6.88452 11.8296L10.7639 11.8296L11.1901 7.54524L6.88452 7.54524L6.88452 5.38194C6.88452 4.78748 7.36642 4.30556 7.96091 4.30556L11.1901 4.30556L11.1901 0L7.96091 0C4.98846 0 2.57891 2.40958 2.57891 5.38194L2.57891 7.54524L0.426132 7.54524L0 11.8296L2.57891 11.8296L2.57891 20.4514Z" id="path_1" />
    <clipPath id="mask_1">
      <use xlink:href="#path_1" />
    </clipPath>
  </defs>
  <g id="facebook">
    <path d="M2.57891 20.4514L6.88452 20.4514L6.88452 11.8296L10.7639 11.8296L11.1901 7.54524L6.88452 7.54524L6.88452 5.38194C6.88452 4.78748 7.36642 4.30556 7.96091 4.30556L11.1901 4.30556L11.1901 0L7.96091 0C4.98846 0 2.57891 2.40958 2.57891 5.38194L2.57891 7.54524L0.426132 7.54524L0 11.8296L2.57891 11.8296L2.57891 20.4514Z" id="facebook" fill="#3C5B9A" stroke="none" />
  </g>
</svg>