<?xml version="1.0" encoding="utf-8"?>
<svg width="9px" height="16px" viewBox="0 0 9 16" version="1.1" xmlns:xlink="http://www.w3.org/1999/xlink" xmlns="http://www.w3.org/2000/svg">
  <desc>Created with Lunacy</desc>
  <defs>
    <path d="M8.8 0.999L8.8 2.201C8.8 2.75273 8.35273 3.2 7.801 3.2C7.14211 3.2 6.4 3.2 6.4 3.2C5.848 3.2 5.6 3.848 5.6 4.4C5.6 4.4 5.6 6.4 5.6 6.4L7.001 6.4Q7.09939 6.4 7.19589 6.4192Q7.2924 6.43839 7.3833 6.47604Q7.4742 6.5137 7.55601 6.56836Q7.63782 6.62303 7.7074 6.6926Q7.77697 6.76217 7.83164 6.84399Q7.8863 6.9258 7.92395 7.0167Q7.96161 7.1076 7.9808 7.2041Q8 7.30061 8 7.399L8 8.601Q8 8.69939 7.9808 8.79589Q7.96161 8.8924 7.92395 8.9833Q7.8863 9.0742 7.83164 9.15601Q7.77697 9.23783 7.7074 9.3074Q7.63782 9.37697 7.55601 9.43164Q7.4742 9.4863 7.3833 9.52396Q7.2924 9.56161 7.19589 9.5808Q7.09939 9.6 7.001 9.6L5.6 9.6L5.6 15.001Q5.6 15.0994 5.5808 15.1959Q5.56161 15.2924 5.52396 15.3833Q5.4863 15.4742 5.43164 15.556Q5.37697 15.6378 5.3074 15.7074Q5.23782 15.777 5.15601 15.8316Q5.0742 15.8863 4.9833 15.924Q4.8924 15.9616 4.79589 15.9808Q4.69939 16 4.601 16L3.399 16Q3.30061 16 3.2041 15.9808Q3.1076 15.9616 3.0167 15.924Q2.9258 15.8863 2.84399 15.8316Q2.76217 15.777 2.6926 15.7074Q2.62303 15.6378 2.56836 15.556Q2.5137 15.4742 2.47604 15.3833Q2.43839 15.2924 2.4192 15.1959Q2.4 15.0994 2.4 15.001L2.4 9.6L0.999 9.6Q0.900607 9.6 0.804105 9.5808Q0.707602 9.56161 0.616699 9.52395Q0.525796 9.4863 0.443985 9.43164Q0.362175 9.37697 0.2926 9.3074Q0.223026 9.23782 0.168362 9.15601Q0.113698 9.0742 0.0760443 8.9833Q0.038391 8.8924 0.0191955 8.79589Q0 8.69939 0 8.601L0 7.399Q0 7.30061 0.0191955 7.2041Q0.038391 7.1076 0.0760443 7.0167Q0.113698 6.9258 0.168362 6.84399Q0.223026 6.76217 0.2926 6.6926Q0.362175 6.62303 0.443985 6.56836Q0.525796 6.5137 0.616699 6.47604Q0.707602 6.43839 0.804105 6.4192Q0.900607 6.4 0.999 6.4C1.65789 6.4 2.4 6.4 2.4 6.4C2.4 6.4 2.4 3.2 2.4 3.2C2.4 1.43269 3.83269 3.55271e-16 5.6 0L7.801 0C8.35273 0 8.8 0.447268 8.8 0.999Z" id="path_1" />
    <clipPath id="mask_1">
      <use xlink:href="#path_1" />
    </clipPath>
  </defs>
  <path d="M8.8 0.999L8.8 2.201C8.8 2.75273 8.35273 3.2 7.801 3.2C7.14211 3.2 6.4 3.2 6.4 3.2C5.848 3.2 5.6 3.848 5.6 4.4C5.6 4.4 5.6 6.4 5.6 6.4L7.001 6.4Q7.09939 6.4 7.19589 6.4192Q7.2924 6.43839 7.3833 6.47604Q7.4742 6.5137 7.55601 6.56836Q7.63782 6.62303 7.7074 6.6926Q7.77697 6.76217 7.83164 6.84399Q7.8863 6.9258 7.92395 7.0167Q7.96161 7.1076 7.9808 7.2041Q8 7.30061 8 7.399L8 8.601Q8 8.69939 7.9808 8.79589Q7.96161 8.8924 7.92395 8.9833Q7.8863 9.0742 7.83164 9.15601Q7.77697 9.23783 7.7074 9.3074Q7.63782 9.37697 7.55601 9.43164Q7.4742 9.4863 7.3833 9.52396Q7.2924 9.56161 7.19589 9.5808Q7.09939 9.6 7.001 9.6L5.6 9.6L5.6 15.001Q5.6 15.0994 5.5808 15.1959Q5.56161 15.2924 5.52396 15.3833Q5.4863 15.4742 5.43164 15.556Q5.37697 15.6378 5.3074 15.7074Q5.23782 15.777 5.15601 15.8316Q5.0742 15.8863 4.9833 15.924Q4.8924 15.9616 4.79589 15.9808Q4.69939 16 4.601 16L3.399 16Q3.30061 16 3.2041 15.9808Q3.1076 15.9616 3.0167 15.924Q2.9258 15.8863 2.84399 15.8316Q2.76217 15.777 2.6926 15.7074Q2.62303 15.6378 2.56836 15.556Q2.5137 15.4742 2.47604 15.3833Q2.43839 15.2924 2.4192 15.1959Q2.4 15.0994 2.4 15.001L2.4 9.6L0.999 9.6Q0.900607 9.6 0.804105 9.5808Q0.707602 9.56161 0.616699 9.52395Q0.525796 9.4863 0.443985 9.43164Q0.362175 9.37697 0.2926 9.3074Q0.223026 9.23782 0.168362 9.15601Q0.113698 9.0742 0.0760443 8.9833Q0.038391 8.8924 0.0191955 8.79589Q0 8.69939 0 8.601L0 7.399Q0 7.30061 0.0191955 7.2041Q0.038391 7.1076 0.0760443 7.0167Q0.113698 6.9258 0.168362 6.84399Q0.223026 6.76217 0.2926 6.6926Q0.362175 6.62303 0.443985 6.56836Q0.525796 6.5137 0.616699 6.47604Q0.707602 6.43839 0.804105 6.4192Q0.900607 6.4 0.999 6.4C1.65789 6.4 2.4 6.4 2.4 6.4C2.4 6.4 2.4 3.2 2.4 3.2C2.4 1.43269 3.83269 3.55271e-16 5.6 0L7.801 0C8.35273 0 8.8 0.447268 8.8 0.999Z" id="icon/social/facebook_24px" fill="#FFFFFF" stroke="none" />
</svg>