<?xml version="1.0" encoding="utf-8"?>
<svg width="31px" height="31px" viewBox="0 0 31 31" version="1.1" xmlns:xlink="http://www.w3.org/1999/xlink" xmlns="http://www.w3.org/2000/svg">
  <desc>Created with Lunacy</desc>
  <g id="facebook-copy-2">
    <path d="M14.9187 0L6.39375 0C2.86258 0 0 3.01324 0 6.73026L0 15.7039C0 19.421 2.86258 22.4342 6.39375 22.4342L14.9187 22.4342C18.4499 22.4342 21.3125 19.421 21.3125 15.7039L21.3125 6.73026C21.3125 3.01324 18.4499 0 14.9187 0ZM6.39375 2.24342C4.03964 2.24342 2.13125 4.25225 2.13125 6.73026L2.13125 15.7039C2.13125 18.182 4.03964 20.1908 6.39375 20.1908L14.9187 20.1908C17.2729 20.1908 19.1812 18.182 19.1812 15.7039L19.1812 6.73026C19.1812 4.25225 17.2729 2.24342 14.9187 2.24342L6.39375 2.24342ZM17.05 5.60855C17.05 6.22806 16.5729 6.73026 15.9844 6.73026C15.3958 6.73026 14.9187 6.22806 14.9187 5.60855C14.9187 4.98905 15.3958 4.48684 15.9844 4.48684C16.5729 4.48684 17.05 4.98905 17.05 5.60855ZM5.32813 11.2171C5.32813 14.3146 7.71361 16.8257 10.6563 16.8257C13.5989 16.8257 15.9844 14.3146 15.9844 11.2171C15.9844 8.11959 13.5989 5.60855 10.6563 5.60855C7.71361 5.60855 5.32813 8.11959 5.32813 11.2171ZM10.6563 14.5822C12.4218 14.5822 13.8531 13.0756 13.8531 11.2171C13.8531 9.35859 12.4218 7.85197 10.6563 7.85197C8.89067 7.85197 7.45937 9.35859 7.45937 11.2171C7.45937 13.0756 8.89067 14.5822 10.6563 14.5822Z" transform="translate(5.166667 3.875)" id="icon" fill="#FF5552" fill-rule="evenodd" stroke="none" />
  </g>
</svg>