<?xml version="1.0" encoding="utf-8"?>
<svg width="16px" height="16px" viewBox="0 0 16 16" version="1.1" xmlns:xlink="http://www.w3.org/1999/xlink" xmlns="http://www.w3.org/2000/svg">
  <desc>Created with Lunacy</desc>
  <defs>
    <path d="M14.7097 1.32258C13.871 0.451613 12.6774 0 11.3226 0L4.67742 0C1.87097 0 0 1.87097 0 4.67742L0 11.2903C0 12.6774 0.451613 13.871 1.35484 14.7419C2.22581 15.5806 3.3871 16 4.70968 16L11.2903 16C12.6774 16 13.8387 15.5484 14.6774 14.7419C15.5484 13.9032 16 12.7097 16 11.3226L16 4.67742C16 3.32258 15.5484 2.16129 14.7097 1.32258ZM13.6452 13.6774C14.2258 13.129 14.5806 12.3226 14.5806 11.3226L14.5806 4.67742C14.5806 3.74194 14.2581 2.93548 13.7097 2.35484C13.129 1.77419 12.3226 1.48387 11.3548 1.48387L4.70968 1.48387C3.74194 1.48387 2.90323 1.77419 2.35484 2.32258C1.77419 2.90323 1.48387 3.70968 1.48387 4.67742L1.48387 11.2903C1.48387 12.2903 1.77419 13.0968 2.35484 13.6774C2.93548 14.2258 3.74194 14.5161 4.70968 14.5161L11.2903 14.5161C12.2581 14.5161 13.0645 14.2258 13.6452 13.6774ZM13.2258 3.74194C13.2258 4.25859 12.807 4.67742 12.2903 4.67742C11.7737 4.67742 11.3548 4.25859 11.3548 3.74194C11.3548 3.22528 11.7737 2.80645 12.2903 2.80645C12.807 2.80645 13.2258 3.22528 13.2258 3.74194ZM3.87097 7.96774C3.87097 5.67742 5.74194 3.83871 8 3.83871C10.2581 3.83871 12.129 5.70968 12.129 7.96774C12.129 10.2258 10.2903 12.0968 8 12.0968C5.70968 12.0968 3.87097 10.2581 3.87097 7.96774ZM8 10.6129C6.54839 10.6129 5.35484 9.41936 5.35484 7.96774C5.35484 6.51613 6.54839 5.32258 8 5.32258C9.45161 5.32258 10.6452 6.51613 10.6452 7.96774C10.6452 9.41936 9.45161 10.6129 8 10.6129Z" id="path_1" />
    <clipPath id="mask_1">
      <use xlink:href="#path_1" />
    </clipPath>
  </defs>
  <g id="icon/social/facebook_24px-copy-2">
    <path d="M14.7097 1.32258C13.871 0.451613 12.6774 0 11.3226 0L4.67742 0C1.87097 0 0 1.87097 0 4.67742L0 11.2903C0 12.6774 0.451613 13.871 1.35484 14.7419C2.22581 15.5806 3.3871 16 4.70968 16L11.2903 16C12.6774 16 13.8387 15.5484 14.6774 14.7419C15.5484 13.9032 16 12.7097 16 11.3226L16 4.67742C16 3.32258 15.5484 2.16129 14.7097 1.32258ZM13.6452 13.6774C14.2258 13.129 14.5806 12.3226 14.5806 11.3226L14.5806 4.67742C14.5806 3.74194 14.2581 2.93548 13.7097 2.35484C13.129 1.77419 12.3226 1.48387 11.3548 1.48387L4.70968 1.48387C3.74194 1.48387 2.90323 1.77419 2.35484 2.32258C1.77419 2.90323 1.48387 3.70968 1.48387 4.67742L1.48387 11.2903C1.48387 12.2903 1.77419 13.0968 2.35484 13.6774C2.93548 14.2258 3.74194 14.5161 4.70968 14.5161L11.2903 14.5161C12.2581 14.5161 13.0645 14.2258 13.6452 13.6774ZM13.2258 3.74194C13.2258 4.25859 12.807 4.67742 12.2903 4.67742C11.7737 4.67742 11.3548 4.25859 11.3548 3.74194C11.3548 3.22528 11.7737 2.80645 12.2903 2.80645C12.807 2.80645 13.2258 3.22528 13.2258 3.74194ZM3.87097 7.96774C3.87097 5.67742 5.74194 3.83871 8 3.83871C10.2581 3.83871 12.129 5.70968 12.129 7.96774C12.129 10.2258 10.2903 12.0968 8 12.0968C5.70968 12.0968 3.87097 10.2581 3.87097 7.96774ZM8 10.6129C6.54839 10.6129 5.35484 9.41936 5.35484 7.96774C5.35484 6.51613 6.54839 5.32258 8 5.32258C9.45161 5.32258 10.6452 6.51613 10.6452 7.96774C10.6452 9.41936 9.45161 10.6129 8 10.6129Z" id="icon/social/instagram_24px" fill="#FFFFFF" fill-rule="evenodd" stroke="none" />
  </g>
</svg>