<?xml version="1.0" encoding="utf-8"?>
<svg width="344px" height="351px" viewBox="0 0 344 351" version="1.1" xmlns:xlink="http://www.w3.org/1999/xlink" xmlns="http://www.w3.org/2000/svg">
  <desc>Created with Lunacy</desc>
  <defs>
    <path d="M14.999 0L329.001 0Q329.369 0 329.737 0.0180669Q330.105 0.0361339 330.471 0.0722243Q330.838 0.108315 331.202 0.162341Q331.566 0.216368 331.927 0.288202Q332.288 0.360035 332.645 0.449501Q333.003 0.538968 333.355 0.645852Q333.707 0.752736 334.054 0.87678Q334.401 1.00082 334.741 1.14173Q335.081 1.28264 335.414 1.44006Q335.747 1.59749 336.072 1.77106Q336.396 1.94463 336.712 2.13393Q337.028 2.32322 337.334 2.52779Q337.64 2.73235 337.936 2.95169Q338.232 3.17103 338.516 3.40462Q338.801 3.6382 339.074 3.88547Q339.346 4.13274 339.607 4.39311Q339.867 4.65346 340.115 4.92629Q340.362 5.19911 340.595 5.48373Q340.829 5.76836 341.048 6.06411Q341.268 6.35985 341.472 6.666Q341.677 6.97215 341.866 7.28797Q342.055 7.60379 342.229 7.92852Q342.402 8.25325 342.56 8.5861Q342.717 8.91895 342.858 9.25913Q342.999 9.59931 343.123 9.94599Q343.247 10.2927 343.354 10.645Q343.461 10.9974 343.55 11.3545Q343.64 11.7117 343.712 12.0728Q343.784 12.434 343.838 12.7982Q343.892 13.1624 343.928 13.5288Q343.964 13.8953 343.982 14.263Q344 14.6308 344 14.999L344 336.001Q344 336.369 343.982 336.737Q343.964 337.105 343.928 337.471Q343.892 337.838 343.838 338.202Q343.784 338.566 343.712 338.927Q343.64 339.288 343.55 339.645Q343.461 340.003 343.354 340.355Q343.247 340.707 343.123 341.054Q342.999 341.401 342.858 341.741Q342.717 342.081 342.56 342.414Q342.402 342.747 342.229 343.071Q342.055 343.396 341.866 343.712Q341.677 344.028 341.472 344.334Q341.268 344.64 341.048 344.936Q340.829 345.232 340.595 345.516Q340.362 345.801 340.115 346.074Q339.867 346.346 339.607 346.607Q339.346 346.867 339.074 347.114Q338.801 347.362 338.516 347.595Q338.232 347.829 337.936 348.048Q337.64 348.268 337.334 348.472Q337.028 348.677 336.712 348.866Q336.396 349.055 336.072 349.229Q335.747 349.402 335.414 349.56Q335.081 349.717 334.741 349.858Q334.401 349.999 334.054 350.123Q333.707 350.247 333.355 350.354Q333.003 350.461 332.645 350.55Q332.288 350.64 331.927 350.712Q331.566 350.784 331.202 350.838Q330.838 350.892 330.471 350.928Q330.105 350.964 329.737 350.982Q329.369 351 329.001 351L14.999 351Q14.6308 351 14.263 350.982Q13.8953 350.964 13.5288 350.928Q13.1624 350.892 12.7982 350.838Q12.434 350.784 12.0728 350.712Q11.7117 350.64 11.3545 350.55Q10.9974 350.461 10.645 350.354Q10.2927 350.247 9.94599 350.123Q9.59931 349.999 9.25913 349.858Q8.91895 349.717 8.5861 349.56Q8.25325 349.402 7.92852 349.229Q7.60379 349.055 7.28797 348.866Q6.97215 348.677 6.666 348.472Q6.35985 348.268 6.06411 348.048Q5.76836 347.829 5.48373 347.595Q5.19911 347.362 4.92629 347.114Q4.65346 346.867 4.39311 346.607Q4.13274 346.346 3.88547 346.074Q3.6382 345.801 3.40462 345.516Q3.17103 345.232 2.95169 344.936Q2.73235 344.64 2.52779 344.334Q2.32322 344.028 2.13393 343.712Q1.94463 343.396 1.77106 343.071Q1.59749 342.747 1.44006 342.414Q1.28264 342.081 1.14173 341.741Q1.00082 341.401 0.87678 341.054Q0.752736 340.707 0.645852 340.355Q0.538968 340.003 0.449501 339.645Q0.360035 339.288 0.288202 338.927Q0.216368 338.566 0.162341 338.202Q0.108315 337.838 0.0722243 337.471Q0.0361339 337.105 0.0180669 336.737Q0 336.369 0 336.001L0 14.999Q0 14.6308 0.018067 14.263Q0.0361339 13.8953 0.0722243 13.5288Q0.108315 13.1624 0.162342 12.7982Q0.216368 12.434 0.288202 12.0728Q0.360035 11.7117 0.449501 11.3545Q0.538968 10.9974 0.645852 10.645Q0.752736 10.2927 0.87678 9.94599Q1.00082 9.59931 1.14173 9.25913Q1.28264 8.91895 1.44006 8.5861Q1.59749 8.25325 1.77106 7.92852Q1.94463 7.60379 2.13393 7.28797Q2.32322 6.97215 2.52779 6.666Q2.73235 6.35985 2.95169 6.06411Q3.17103 5.76836 3.40462 5.48373Q3.6382 5.19911 3.88547 4.92629Q4.13275 4.65346 4.39311 4.39311Q4.65347 4.13274 4.92629 3.88547Q5.19911 3.6382 5.48374 3.40462Q5.76836 3.17103 6.06411 2.95169Q6.35985 2.73235 6.666 2.52779Q6.97215 2.32322 7.28797 2.13393Q7.60379 1.94463 7.92852 1.77106Q8.25325 1.59749 8.5861 1.44006Q8.91895 1.28264 9.25913 1.14173Q9.59931 1.00082 9.94599 0.87678Q10.2927 0.752736 10.645 0.645852Q10.9974 0.538968 11.3545 0.449501Q11.7117 0.360035 12.0728 0.288202Q12.434 0.216368 12.7982 0.162341Q13.1624 0.108315 13.5288 0.0722243Q13.8953 0.0361339 14.263 0.0180669Q14.6308 0 14.999 0L14.999 0Z" id="path_1" />
    <path d="M1 8.59249L12.17 8.59249L7.29 13.4725C6.9 13.8625 6.9 14.5025 7.29 14.8925C7.68 15.2825 8.31 15.2825 8.7 14.8925L15.29 8.30249C15.68 7.91249 15.68 7.28249 15.29 6.89249L8.71 0.292486C8.52317 0.105233 8.26952 0 8.005 0C7.74048 0 7.48683 0.105233 7.3 0.292486C6.91 0.682486 6.91 1.31249 7.3 1.70249L12.17 6.59249L1 6.59249C0.45 6.59249 0 7.04249 0 7.59249C0 8.14249 0.45 8.59249 1 8.59249Z" transform="translate(4.20875 4.407507)" id="path_2" />
    <path d="M25.1039 5.67249C24.55 6.22639 24.5039 7.08801 24.9962 7.70345C27.2272 10.5037 28.3966 14.3349 27.3503 18.3506C26.1348 23.0434 22.4575 26.5514 17.7955 27.49C9.94864 29.044 3.07105 22.9818 3.07105 15.3965C3.07105 9.11897 7.76381 3.94925 13.8413 3.19533L13.8413 6.30332C9.02547 7.11878 5.48667 11.6269 6.25598 16.812C6.85603 20.8278 10.1948 24.0589 14.226 24.5512C19.8265 25.2436 24.6116 20.8739 24.6116 15.3965C24.6116 13.4732 24.0269 11.7038 23.0268 10.2268C22.5037 9.45747 21.3805 9.41131 20.7189 10.0575L20.7035 10.0729C20.1804 10.596 20.1342 11.4115 20.5343 12.0269C21.4574 13.4425 21.8267 15.258 21.2882 17.1351C20.6881 19.243 18.9187 20.9201 16.7647 21.3971C12.7643 22.2741 9.22549 19.2584 9.22549 15.3965C9.22549 12.5347 11.1949 10.1498 13.8413 9.45747L13.8413 12.7501C12.9182 13.2886 12.3027 14.2579 12.3027 15.3965C12.3027 17.089 13.6875 18.4737 15.3799 18.4737C17.0724 18.4737 18.4571 17.089 18.4571 15.3965C18.4571 14.2579 17.8417 13.2732 16.9185 12.7501L16.9185 1.10282C16.9185 0.502764 16.4262 0.0104088 15.8261 0.0104088C7.57918 -0.297313 0.470804 6.25716 0.0246074 14.4733C-0.529292 24.5512 8.34848 32.6597 18.5033 30.4749C24.4731 29.1978 29.0889 24.6282 30.4275 18.6737C31.5199 13.8117 30.1198 9.19591 27.3965 5.79558C26.8272 5.07243 25.7502 5.02627 25.1039 5.67249Z" transform="translate(3.100013 3.083333)" id="path_3" />
    <clipPath id="clip_1">
      <use xlink:href="#path_1" />
    </clipPath>
    <clipPath id="mask_1">
      <use xlink:href="#path_2" />
    </clipPath>
    <clipPath id="mask_2">
      <use xlink:href="#path_3" />
    </clipPath>
  </defs>
  <g id="features">
    <g id="State">
      <use stroke="none" fill="#FFFFFF" xlink:href="#path_1" />
      <g clip-path="url(#clip_1)">
        <use xlink:href="#path_1" fill="none" stroke="#717CFF" stroke-width="6" />
      </g>
    </g>
    <g id="Group-2" transform="translate(31 135)">
      <g id="buttons/web/solid/text-+-symbol/symbol-→-text/success-copy" transform="translate(0 161.6155)">
        <g id="Group">
          <g id="Learn-More" fill="#717CFF">
            <path d="M7.73633 17.4517L1.56055 17.4517L1.56055 5.54834L2.95508 5.54834L2.95508 16.1899L7.73633 16.1899L7.73633 17.4517ZM61.6217 17.4517L60.2355 17.4517L60.2355 9.46631Q60.2355 8.52002 60.3517 7.15039L60.3185 7.15039Q60.1193 7.95557 59.9616 8.3042L55.8942 17.4517L55.2135 17.4517L51.1544 8.37061Q50.9801 7.97217 50.7975 7.15039L50.7643 7.15039Q50.8307 7.86426 50.8307 9.48291L50.8307 17.4517L49.486 17.4517L49.486 5.54834L51.3288 5.54834L54.9811 13.8491Q55.4044 14.8037 55.5289 15.2769L55.5788 15.2769Q55.9357 14.2974 56.1515 13.8159L59.8786 5.54834L61.6217 5.54834L61.6217 17.4517ZM16.6507 13.542L10.6492 13.542Q10.6825 14.9614 11.4129 15.7334Q12.1434 16.5054 13.4217 16.5054Q14.8577 16.5054 16.0614 15.5591L16.0614 16.8374Q14.9408 17.6509 13.098 17.6509Q11.2967 17.6509 10.2674 16.4929Q9.23811 15.335 9.23811 13.2349Q9.23811 11.251 10.3629 10.0017Q11.4876 8.75244 13.1561 8.75244Q14.8245 8.75244 15.7376 9.83154Q16.6507 10.9106 16.6507 12.8281L16.6507 13.542ZM23.8717 17.4517L25.2331 17.4517L25.2331 11.9233Q25.2331 8.75244 22.2365 8.75244Q20.6012 8.75244 19.3478 9.54932L19.3478 10.9438Q20.5846 9.89795 22.1203 9.89795Q23.8717 9.89795 23.8717 12.0645L21.3234 12.4214Q18.5177 12.8115 18.5177 15.1938Q18.5177 16.3062 19.2358 16.9785Q19.9538 17.6509 21.2238 17.6509Q22.9503 17.6509 23.8385 16.1235L23.8717 16.1235L23.8717 17.4517ZM40.2811 17.4517L41.6424 17.4517L41.6424 12.2554Q41.6424 10.5537 40.9036 9.65308Q40.1649 8.75244 38.7703 8.75244Q36.9442 8.75244 35.9813 10.3628L35.9481 10.3628L35.9481 8.95166L34.5867 8.95166L34.5867 17.4517L35.9481 17.4517L35.9481 12.604Q35.9481 11.4336 36.6163 10.6658Q37.2845 9.89795 38.3055 9.89795Q40.2811 9.89795 40.2811 12.604L40.2811 17.4517ZM65.5515 16.4597Q66.6762 17.6509 68.5605 17.6509Q70.4946 17.6509 71.6443 16.4265Q72.7939 15.2021 72.7939 13.1685Q72.7939 11.0933 71.7273 9.92285Q70.6606 8.75244 68.7597 8.75244Q66.7675 8.75244 65.5971 9.95605Q64.4267 11.1597 64.4267 13.3013Q64.4267 15.2686 65.5515 16.4597ZM82.5875 13.542L88.589 13.542L88.589 12.8281Q88.589 10.9106 87.6759 9.83154Q86.7628 8.75244 85.0944 8.75244Q83.4259 8.75244 82.3012 10.0017Q81.1764 11.251 81.1764 13.2349Q81.1764 15.335 82.2057 16.4929Q83.235 17.6509 85.0363 17.6509Q86.879 17.6509 87.9996 16.8374L87.9996 15.5591Q86.796 16.5054 85.36 16.5054Q84.0817 16.5054 83.3512 15.7334Q82.6207 14.9614 82.5875 13.542ZM32.6699 10.3296Q32.313 10.0557 31.6406 10.0557Q30.769 10.0557 30.1838 10.8774Q29.5986 11.6992 29.5986 13.1187L29.5986 17.4517L28.2373 17.4517L28.2373 8.95166L29.5986 8.95166L29.5986 10.7031L29.6318 10.7031Q29.9224 9.80664 30.52 9.30444Q31.1177 8.80225 31.8564 8.80225Q32.3877 8.80225 32.6699 8.91846L32.6699 10.3296ZM79.8406 10.3296Q79.4837 10.0557 78.8113 10.0557Q77.9398 10.0557 77.3545 10.8774Q76.7693 11.6992 76.7693 13.1187L76.7693 17.4517L75.408 17.4517L75.408 8.95166L76.7693 8.95166L76.7693 10.7031L76.8025 10.7031Q77.0931 9.80664 77.6907 9.30444Q78.2884 8.80225 79.0272 8.80225Q79.5584 8.80225 79.8406 8.91846L79.8406 10.3296ZM15.2562 12.3882Q15.2479 11.2095 14.6876 10.5537Q14.1273 9.89795 13.1312 9.89795Q12.1683 9.89795 11.4959 10.5869Q10.8236 11.2759 10.6658 12.3882L15.2562 12.3882ZM66.5849 10.7903Q67.3486 9.89795 68.6601 9.89795Q69.9799 9.89795 70.6897 10.7612Q71.3994 11.6245 71.3994 13.2183Q71.3994 14.7954 70.6897 15.6504Q69.9799 16.5054 68.6601 16.5054Q67.3652 16.5054 66.5932 15.6338Q65.8213 14.7622 65.8213 13.2515Q65.8213 11.6826 66.5849 10.7903ZM86.6259 10.5537Q87.1862 11.2095 87.1945 12.3882L82.6041 12.3882Q82.7618 11.2759 83.4342 10.5869Q84.1066 9.89795 85.0695 9.89795Q86.0656 9.89795 86.6259 10.5537ZM21.8214 13.4341L23.8717 13.1519L23.8717 13.9985Q23.8717 15.0859 23.2118 15.7957Q22.5519 16.5054 21.5392 16.5054Q20.8004 16.5054 20.3564 16.1111Q19.9123 15.7168 19.9123 15.0942Q19.9123 14.2393 20.3937 13.9031Q20.8752 13.5669 21.8214 13.4341Z" />
          </g>
          <g id="icon/navigation/arrow_forward_24px" transform="translate(108.2991 0)">
            <path d="M1 8.59249L12.17 8.59249L7.29 13.4725C6.9 13.8625 6.9 14.5025 7.29 14.8925C7.68 15.2825 8.31 15.2825 8.7 14.8925L15.29 8.30249C15.68 7.91249 15.68 7.28249 15.29 6.89249L8.71 0.292486C8.52317 0.105233 8.26952 0 8.005 0C7.74048 0 7.48683 0.105233 7.3 0.292486C6.91 0.682486 6.91 1.31249 7.3 1.70249L12.17 6.59249L1 6.59249C0.45 6.59249 0 7.04249 0 7.59249C0 8.14249 0.45 8.59249 1 8.59249Z" transform="translate(4.20875 4.407507)" id="icon/navigation/arrow_forward_24px" fill="#717CFF" stroke="none" />
          </g>
        </g>
      </g>
      <g id="Details" transform="translate(0 46)">
        <g id="Maiores-voluptas-laboriosam-non" fill="#37474F" fill-opacity="0.721568644">
          <path d="M83.1953 19.6016L84.4766 19.6016L84.4766 7.75781L83.1953 7.75781L83.1953 19.6016ZM132.932 19.6016L134.214 19.6016L134.214 7.75781L132.932 7.75781L132.932 19.6016ZM147.118 18.4453L147.149 18.4453Q147.962 19.7891 149.548 19.7891Q151.243 19.7891 152.22 18.582Q153.196 17.375 153.196 15.3672Q153.196 13.5625 152.325 12.4883Q151.454 11.4141 149.915 11.4141Q148.095 11.4141 147.149 13.0078L147.118 13.0078L147.118 7.75781L145.837 7.75781L145.837 19.6016L147.118 19.6016L147.118 18.4453ZM25.3498 9.57031Q25.0061 9.57031 24.7639 9.33594Q24.5217 9.10156 24.5217 8.74219Q24.5217 8.38281 24.7639 8.14453Q25.0061 7.90625 25.3498 7.90625Q25.7014 7.90625 25.9475 8.14453Q26.1936 8.38281 26.1936 8.74219Q26.1936 9.08594 25.9475 9.32813Q25.7014 9.57031 25.3498 9.57031ZM172.17 9.57031Q171.826 9.57031 171.584 9.33594Q171.342 9.10156 171.342 8.74219Q171.342 8.38281 171.584 8.14453Q171.826 7.90625 172.17 7.90625Q172.522 7.90625 172.768 8.14453Q173.014 8.38281 173.014 8.74219Q173.014 9.08594 172.768 9.32813Q172.522 9.57031 172.17 9.57031ZM11.5859 19.6016L12.8906 19.6016L12.8906 8.39844L11.25 8.39844L7.74219 16.1797Q7.53906 16.6328 7.20313 17.5547L7.15625 17.5547Q7.03906 17.1094 6.64063 16.2109L3.20313 8.39844L1.46875 8.39844L1.46875 19.6016L2.73438 19.6016L2.73438 12.1016Q2.73437 10.5781 2.67188 9.90625L2.70313 9.90625Q2.875 10.6797 3.03906 11.0547L6.85938 19.6016L7.5 19.6016L11.3281 10.9922Q11.4766 10.6641 11.6641 9.90625L11.6953 9.90625Q11.5859 11.1953 11.5859 12.0859L11.5859 19.6016ZM110.576 19.5234Q110.122 19.7734 109.38 19.7734Q107.279 19.7734 107.279 17.4297L107.279 12.6953L105.904 12.6953L105.904 11.6016L107.279 11.6016L107.279 9.64844L108.56 9.23438L108.56 11.6016L110.576 11.6016L110.576 12.6953L108.56 12.6953L108.56 17.2031Q108.56 18.0078 108.833 18.3516Q109.107 18.6953 109.74 18.6953Q110.224 18.6953 110.576 18.4297L110.576 19.5234ZM20.5538 19.6016L21.8351 19.6016L21.8351 14.3984Q21.8351 11.4141 19.0148 11.4141Q17.4757 11.4141 16.296 12.1641L16.296 13.4766Q17.4601 12.4922 18.9054 12.4922Q20.5538 12.4922 20.5538 14.5313L18.1554 14.8672Q15.5148 15.2344 15.5148 17.4766Q15.5148 18.5234 16.1905 19.1563Q16.8663 19.7891 18.0616 19.7891Q19.6866 19.7891 20.5226 18.3516L20.5538 18.3516L20.5538 19.6016ZM29.5247 18.668Q30.5833 19.7891 32.3568 19.7891Q34.1771 19.7891 35.2591 18.6367Q36.3411 17.4844 36.3411 15.5703Q36.3411 13.6172 35.3372 12.5156Q34.3333 11.4141 32.5443 11.4141Q30.6693 11.4141 29.5677 12.5469Q28.4661 13.6797 28.4661 15.6953Q28.4661 17.5469 29.5247 18.668ZM45.6207 15.9219L51.2691 15.9219L51.2691 15.25Q51.2691 13.4453 50.4097 12.4297Q49.5503 11.4141 47.98 11.4141Q46.4097 11.4141 45.3511 12.5898Q44.2925 13.7656 44.2925 15.6328Q44.2925 17.6094 45.2613 18.6992Q46.23 19.7891 47.9253 19.7891Q49.6597 19.7891 50.7144 19.0234L50.7144 17.8203Q49.5816 18.7109 48.23 18.7109Q47.0269 18.7109 46.3394 17.9844Q45.6519 17.2578 45.6207 15.9219ZM53.1667 19.3125L53.1667 17.9375Q54.2135 18.7109 55.4713 18.7109Q57.1588 18.7109 57.1588 17.5859Q57.1588 17.2656 57.0143 17.043Q56.8698 16.8203 56.6237 16.6484Q56.3776 16.4766 56.0456 16.3398Q55.7135 16.2031 55.3307 16.0547Q54.7995 15.8438 54.3971 15.6289Q53.9948 15.4141 53.7253 15.1445Q53.4557 14.875 53.319 14.5313Q53.1823 14.1875 53.1823 13.7266Q53.1823 13.1641 53.4401 12.7305Q53.6979 12.2969 54.1276 12.0039Q54.5573 11.7109 55.1081 11.5625Q55.6588 11.4141 56.2448 11.4141Q57.2838 11.4141 58.1042 11.7734L58.1042 13.0703Q57.2213 12.4922 56.0729 12.4922Q55.7135 12.4922 55.4245 12.5742Q55.1354 12.6563 54.9284 12.8047Q54.7213 12.9531 54.6081 13.1602Q54.4948 13.3672 54.4948 13.6172Q54.4948 13.9297 54.6081 14.1406Q54.7213 14.3516 54.9401 14.5156Q55.1588 14.6797 55.4713 14.8125Q55.7838 14.9453 56.1823 15.1016Q56.7135 15.3047 57.1354 15.5195Q57.5573 15.7344 57.8542 16.0039Q58.151 16.2734 58.3112 16.625Q58.4713 16.9766 58.4713 17.4609Q58.4713 18.0547 58.2096 18.4922Q57.9479 18.9297 57.5104 19.2188Q57.0729 19.5078 56.5026 19.6484Q55.9323 19.7891 55.3073 19.7891Q54.0729 19.7891 53.1667 19.3125ZM76.7196 19.7891Q74.9462 19.7891 73.8876 18.668Q72.829 17.5469 72.829 15.6953Q72.829 13.6797 73.9305 12.5469Q75.0321 11.4141 76.9071 11.4141Q78.6962 11.4141 79.7001 12.5156Q80.704 13.6172 80.704 15.5703Q80.704 17.4844 79.622 18.6367Q78.5399 19.7891 76.7196 19.7891ZM98.2951 18.4453L98.3264 18.4453Q99.1701 19.7891 100.725 19.7891Q102.42 19.7891 103.397 18.582Q104.373 17.375 104.373 15.3672Q104.373 13.5625 103.506 12.4883Q102.639 11.4141 101.092 11.4141Q99.2717 11.4141 98.3264 13.0078L98.2951 13.0078L98.2951 11.6016L97.0139 11.6016L97.0139 23.2813L98.2951 23.2813L98.2951 18.4453ZM117.176 19.6016L118.457 19.6016L118.457 14.3984Q118.457 11.4141 115.637 11.4141Q114.098 11.4141 112.918 12.1641L112.918 13.4766Q114.082 12.4922 115.528 12.4922Q117.176 12.4922 117.176 14.5313L114.778 14.8672Q112.137 15.2344 112.137 17.4766Q112.137 18.5234 112.813 19.1563Q113.489 19.7891 114.684 19.7891Q116.309 19.7891 117.145 18.3516L117.176 18.3516L117.176 19.6016ZM120.832 19.3125L120.832 17.9375Q121.878 18.7109 123.136 18.7109Q124.824 18.7109 124.824 17.5859Q124.824 17.2656 124.679 17.043Q124.535 16.8203 124.289 16.6484Q124.043 16.4766 123.71 16.3398Q123.378 16.2031 122.996 16.0547Q122.464 15.8438 122.062 15.6289Q121.66 15.4141 121.39 15.1445Q121.121 14.875 120.984 14.5313Q120.847 14.1875 120.847 13.7266Q120.847 13.1641 121.105 12.7305Q121.363 12.2969 121.793 12.0039Q122.222 11.7109 122.773 11.5625Q123.324 11.4141 123.91 11.4141Q124.949 11.4141 125.769 11.7734L125.769 13.0703Q124.886 12.4922 123.738 12.4922Q123.378 12.4922 123.089 12.5742Q122.8 12.6563 122.593 12.8047Q122.386 12.9531 122.273 13.1602Q122.16 13.3672 122.16 13.6172Q122.16 13.9297 122.273 14.1406Q122.386 14.3516 122.605 14.5156Q122.824 14.6797 123.136 14.8125Q123.449 14.9453 123.847 15.1016Q124.378 15.3047 124.8 15.5195Q125.222 15.7344 125.519 16.0039Q125.816 16.2734 125.976 16.625Q126.136 16.9766 126.136 17.4609Q126.136 18.0547 125.875 18.4922Q125.613 18.9297 125.175 19.2188Q124.738 19.5078 124.168 19.6484Q123.597 19.7891 122.972 19.7891Q121.738 19.7891 120.832 19.3125ZM142.978 19.6016L141.697 19.6016L141.697 18.3516L141.666 18.3516Q140.83 19.7891 139.205 19.7891Q138.01 19.7891 137.334 19.1563Q136.658 18.5234 136.658 17.4766Q136.658 15.2344 139.299 14.8672L141.697 14.5313Q141.697 12.4922 140.049 12.4922Q138.603 12.4922 137.439 13.4766L137.439 12.1641Q138.619 11.4141 140.158 11.4141Q142.978 11.4141 142.978 14.3984L142.978 19.6016ZM159.031 19.7891Q157.258 19.7891 156.199 18.668Q155.141 17.5469 155.141 15.6953Q155.141 13.6797 156.242 12.5469Q157.344 11.4141 159.219 11.4141Q161.008 11.4141 162.012 12.5156Q163.016 13.6172 163.016 15.5703Q163.016 17.4844 161.934 18.6367Q160.852 19.7891 159.031 19.7891ZM176.345 18.668Q177.404 19.7891 179.177 19.7891Q180.997 19.7891 182.079 18.6367Q183.161 17.4844 183.161 15.5703Q183.161 13.6172 182.158 12.5156Q181.154 11.4141 179.365 11.4141Q177.49 11.4141 176.388 12.5469Q175.286 13.6797 175.286 15.6953Q175.286 17.5469 176.345 18.668ZM185.168 19.3125L185.168 17.9375Q186.215 18.7109 187.473 18.7109Q189.161 18.7109 189.161 17.5859Q189.161 17.2656 189.016 17.043Q188.872 16.8203 188.625 16.6484Q188.379 16.4766 188.047 16.3398Q187.715 16.2031 187.332 16.0547Q186.801 15.8438 186.399 15.6289Q185.997 15.4141 185.727 15.1445Q185.457 14.875 185.321 14.5313Q185.184 14.1875 185.184 13.7266Q185.184 13.1641 185.442 12.7305Q185.7 12.2969 186.129 12.0039Q186.559 11.7109 187.11 11.5625Q187.661 11.4141 188.247 11.4141Q189.286 11.4141 190.106 11.7734L190.106 13.0703Q189.223 12.4922 188.075 12.4922Q187.715 12.4922 187.426 12.5742Q187.137 12.6563 186.93 12.8047Q186.723 12.9531 186.61 13.1602Q186.497 13.3672 186.497 13.6172Q186.497 13.9297 186.61 14.1406Q186.723 14.3516 186.942 14.5156Q187.161 14.6797 187.473 14.8125Q187.786 14.9453 188.184 15.1016Q188.715 15.3047 189.137 15.5195Q189.559 15.7344 189.856 16.0039Q190.153 16.2734 190.313 16.625Q190.473 16.9766 190.473 17.4609Q190.473 18.0547 190.211 18.4922Q189.95 18.9297 189.512 19.2188Q189.075 19.5078 188.504 19.6484Q187.934 19.7891 187.309 19.7891Q186.075 19.7891 185.168 19.3125ZM197.332 19.6016L198.613 19.6016L198.613 14.3984Q198.613 11.4141 195.793 11.4141Q194.253 11.4141 193.074 12.1641L193.074 13.4766Q194.238 12.4922 195.683 12.4922Q197.332 12.4922 197.332 14.5313L194.933 14.8672Q192.293 15.2344 192.293 17.4766Q192.293 18.5234 192.968 19.1563Q193.644 19.7891 194.839 19.7891Q196.464 19.7891 197.3 18.3516L197.332 18.3516L197.332 19.6016ZM212.831 19.6016L211.549 19.6016L211.549 15.0078Q211.549 13.6797 211.139 13.0859Q210.729 12.4922 209.76 12.4922Q208.94 12.4922 208.366 13.2422Q207.792 13.9922 207.792 15.0391L207.792 19.6016L206.51 19.6016L206.51 14.8516Q206.51 12.4922 204.69 12.4922Q203.846 12.4922 203.299 13.1992Q202.753 13.9063 202.753 15.0391L202.753 19.6016L201.471 19.6016L201.471 11.6016L202.753 11.6016L202.753 12.8672L202.784 12.8672Q203.635 11.4141 205.268 11.4141Q206.089 11.4141 206.698 11.8711Q207.307 12.3281 207.534 13.0703Q208.424 11.4141 210.19 11.4141Q212.831 11.4141 212.831 14.6719L212.831 19.6016ZM225.439 19.6016L226.72 19.6016L226.72 14.7109Q226.72 13.1094 226.025 12.2617Q225.33 11.4141 224.017 11.4141Q222.299 11.4141 221.392 12.9297L221.361 12.9297L221.361 11.6016L220.08 11.6016L220.08 19.6016L221.361 19.6016L221.361 15.0391Q221.361 13.9375 221.99 13.2148Q222.619 12.4922 223.58 12.4922Q225.439 12.4922 225.439 15.0391L225.439 19.6016ZM232.923 19.7891Q231.149 19.7891 230.091 18.668Q229.032 17.5469 229.032 15.6953Q229.032 13.6797 230.134 12.5469Q231.235 11.4141 233.11 11.4141Q234.899 11.4141 235.903 12.5156Q236.907 13.6172 236.907 15.5703Q236.907 17.4844 235.825 18.6367Q234.743 19.7891 232.923 19.7891ZM244.758 19.6016L246.039 19.6016L246.039 14.7109Q246.039 13.1094 245.344 12.2617Q244.648 11.4141 243.336 11.4141Q241.617 11.4141 240.711 12.9297L240.68 12.9297L240.68 11.6016L239.398 11.6016L239.398 19.6016L240.68 19.6016L240.68 15.0391Q240.68 13.9375 241.309 13.2148Q241.937 12.4922 242.898 12.4922Q244.758 12.4922 244.758 15.0391L244.758 19.6016ZM43.0043 12.8984Q42.6684 12.6406 42.0356 12.6406Q41.2153 12.6406 40.6645 13.4141Q40.1137 14.1875 40.1137 15.5234L40.1137 19.6016L38.8325 19.6016L38.8325 11.6016L40.1137 11.6016L40.1137 13.25L40.145 13.25Q40.4184 12.4063 40.9809 11.9336Q41.5434 11.4609 42.2387 11.4609Q42.7387 11.4609 43.0043 11.5703L43.0043 12.8984ZM168.71 12.6406Q169.343 12.6406 169.679 12.8984L169.679 11.5703Q169.413 11.4609 168.913 11.4609Q168.218 11.4609 167.655 11.9336Q167.093 12.4063 166.819 13.25L166.788 13.25L166.788 11.6016L165.507 11.6016L165.507 19.6016L166.788 19.6016L166.788 15.5234Q166.788 14.1875 167.339 13.4141Q167.89 12.6406 168.71 12.6406ZM25.9748 19.6016L24.6936 19.6016L24.6936 11.6016L25.9748 11.6016L25.9748 19.6016ZM68.3689 19.6016L71.5564 11.6016L70.2048 11.6016L68.0798 17.4453Q67.908 17.9297 67.8298 18.5313L67.7986 18.5313Q67.7439 18.0547 67.5173 17.4141L65.4861 11.6016L64.0798 11.6016L67.1111 19.6016L68.3689 19.6016ZM93.9835 19.6016L92.7022 19.6016L92.7022 18.3359L92.671 18.3359Q91.8741 19.7891 90.2022 19.7891Q87.3429 19.7891 87.3429 16.3828L87.3429 11.6016L88.6163 11.6016L88.6163 16.1797Q88.6163 18.7109 90.5538 18.7109Q91.4913 18.7109 92.0968 18.0195Q92.7022 17.3281 92.7022 16.2109L92.7022 11.6016L93.9835 11.6016L93.9835 19.6016ZM172.795 19.6016L171.514 19.6016L171.514 11.6016L172.795 11.6016L172.795 19.6016ZM30.4974 13.332Q31.2161 12.4922 32.4505 12.4922Q33.6927 12.4922 34.3607 13.3047Q35.0286 14.1172 35.0286 15.6172Q35.0286 17.1016 34.3607 17.9063Q33.6927 18.7109 32.4505 18.7109Q31.2318 18.7109 30.5052 17.8906Q29.7786 17.0703 29.7786 15.6484Q29.7786 14.1719 30.4974 13.332ZM49.4214 13.1094Q49.9488 13.7266 49.9566 14.8359L45.6363 14.8359Q45.7847 13.7891 46.4175 13.1406Q47.0503 12.4922 47.9566 12.4922Q48.8941 12.4922 49.4214 13.1094ZM76.8134 12.4922Q75.579 12.4922 74.8602 13.332Q74.1415 14.1719 74.1415 15.6484Q74.1415 17.0703 74.868 17.8906Q75.5946 18.7109 76.8134 18.7109Q78.0555 18.7109 78.7235 17.9063Q79.3915 17.1016 79.3915 15.6172Q79.3915 14.1172 78.7235 13.3047Q78.0555 12.4922 76.8134 12.4922ZM98.2951 16.3359L98.2951 15.2188Q98.2951 14.0469 98.9748 13.2695Q99.6545 12.4922 100.772 12.4922Q101.826 12.4922 102.444 13.25Q103.061 14.0078 103.061 15.3438Q103.061 16.9297 102.401 17.8203Q101.74 18.7109 100.576 18.7109Q99.5842 18.7109 98.9397 18.0195Q98.2951 17.3281 98.2951 16.3359ZM147.118 16.3359L147.118 15.2188Q147.118 14.0469 147.798 13.2695Q148.477 12.4922 149.595 12.4922Q150.649 12.4922 151.266 13.25Q151.884 14.0078 151.884 15.3438Q151.884 16.9297 151.224 17.8203Q150.563 18.7109 149.399 18.7109Q148.407 18.7109 147.763 18.0195Q147.118 17.3281 147.118 16.3359ZM159.125 12.4922Q157.891 12.4922 157.172 13.332Q156.453 14.1719 156.453 15.6484Q156.453 17.0703 157.18 17.8906Q157.906 18.7109 159.125 18.7109Q160.367 18.7109 161.035 17.9063Q161.703 17.1016 161.703 15.6172Q161.703 14.1172 161.035 13.3047Q160.367 12.4922 159.125 12.4922ZM177.318 13.332Q178.036 12.4922 179.271 12.4922Q180.513 12.4922 181.181 13.3047Q181.849 14.1172 181.849 15.6172Q181.849 17.1016 181.181 17.9063Q180.513 18.7109 179.271 18.7109Q178.052 18.7109 177.326 17.8906Q176.599 17.0703 176.599 15.6484Q176.599 14.1719 177.318 13.332ZM233.016 12.4922Q231.782 12.4922 231.063 13.332Q230.345 14.1719 230.345 15.6484Q230.345 17.0703 231.071 17.8906Q231.798 18.7109 233.016 18.7109Q234.259 18.7109 234.927 17.9063Q235.595 17.1016 235.595 15.6172Q235.595 14.1172 234.927 13.3047Q234.259 12.4922 233.016 12.4922ZM18.6241 15.8203L20.5538 15.5547L20.5538 16.3516Q20.5538 17.375 19.9327 18.043Q19.3116 18.7109 18.3585 18.7109Q17.6632 18.7109 17.2452 18.3398Q16.8273 17.9688 16.8273 17.3828Q16.8273 16.5781 17.2804 16.2617Q17.7335 15.9453 18.6241 15.8203ZM115.247 15.8203L117.176 15.5547L117.176 16.3516Q117.176 17.375 116.555 18.043Q115.934 18.7109 114.981 18.7109Q114.286 18.7109 113.868 18.3398Q113.45 17.9688 113.45 17.3828Q113.45 16.5781 113.903 16.2617Q114.356 15.9453 115.247 15.8203ZM141.697 15.5547L139.767 15.8203Q138.877 15.9453 138.424 16.2617Q137.97 16.5781 137.97 17.3828Q137.97 17.9688 138.388 18.3398Q138.806 18.7109 139.502 18.7109Q140.455 18.7109 141.076 18.043Q141.697 17.375 141.697 16.3516L141.697 15.5547ZM195.402 15.8203L197.332 15.5547L197.332 16.3516Q197.332 17.375 196.71 18.043Q196.089 18.7109 195.136 18.7109Q194.441 18.7109 194.023 18.3398Q193.605 17.9688 193.605 17.3828Q193.605 16.5781 194.058 16.2617Q194.511 15.9453 195.402 15.8203Z" />
        </g>
        <g id="dolorum-perferendis-fuga-repellat-aut." fill="#37474F" fill-opacity="0.721568644">
          <path d="M97.8585 36.8828Q97.4835 36.6719 97.0069 36.6719Q95.6632 36.6719 95.6632 38.3672L95.6632 39.6016L97.5382 39.6016L97.5382 40.6953L95.6632 40.6953L95.6632 47.6016L94.3897 47.6016L94.3897 40.6953L93.0226 40.6953L93.0226 39.6016L94.3897 39.6016L94.3897 38.3047Q94.3897 37.0469 95.1163 36.3164Q95.8429 35.5859 96.9288 35.5859Q97.5147 35.5859 97.8585 35.7266L97.8585 36.8828ZM162.242 36.8828Q161.867 36.6719 161.391 36.6719Q160.047 36.6719 160.047 38.3672L160.047 39.6016L161.922 39.6016L161.922 40.6953L160.047 40.6953L160.047 47.6016L158.773 47.6016L158.773 40.6953L157.406 40.6953L157.406 39.6016L158.773 39.6016L158.773 38.3047Q158.773 37.0469 159.5 36.3164Q160.227 35.5859 161.312 35.5859Q161.898 35.5859 162.242 35.7266L162.242 36.8828ZM6.84375 47.6016L8.125 47.6016L8.125 35.7578L6.84375 35.7578L6.84375 40.7109L6.8125 40.7109Q6.0625 39.4141 4.41406 39.4141Q2.75 39.4141 1.75 40.6094Q0.75 41.8047 0.75 43.7891Q0.75 45.6406 1.65234 46.7148Q2.55469 47.7891 4.0625 47.7891Q5.92188 47.7891 6.8125 46.2422L6.84375 46.2422L6.84375 47.6016ZM22.2639 47.6016L20.9826 47.6016L20.9826 35.7578L22.2639 35.7578L22.2639 47.6016ZM138.034 47.6016L139.315 47.6016L139.315 35.7578L138.034 35.7578L138.034 40.7109L138.003 40.7109Q137.253 39.4141 135.604 39.4141Q133.94 39.4141 132.94 40.6094Q131.94 41.8047 131.94 43.7891Q131.94 45.6406 132.842 46.7148Q133.745 47.7891 135.253 47.7891Q137.112 47.7891 138.003 46.2422L138.034 46.2422L138.034 47.6016ZM230.837 47.6016L229.556 47.6016L229.556 35.7578L230.837 35.7578L230.837 47.6016ZM233.875 47.6016L235.156 47.6016L235.156 35.7578L233.875 35.7578L233.875 47.6016ZM143.01 37.5703Q142.666 37.5703 142.424 37.3359Q142.181 37.1016 142.181 36.7422Q142.181 36.3828 142.424 36.1445Q142.666 35.9063 143.01 35.9063Q143.361 35.9063 143.607 36.1445Q143.853 36.3828 143.853 36.7422Q143.853 37.0859 143.607 37.3281Q143.361 37.5703 143.01 37.5703ZM249.295 47.7734Q250.037 47.7734 250.49 47.5234L250.49 46.4297Q250.139 46.6953 249.654 46.6953Q249.022 46.6953 248.748 46.3516Q248.475 46.0078 248.475 45.2031L248.475 40.6953L250.49 40.6953L250.49 39.6016L248.475 39.6016L248.475 37.2344L247.194 37.6484L247.194 39.6016L245.819 39.6016L245.819 40.6953L247.194 40.6953L247.194 45.4297Q247.194 47.7734 249.295 47.7734ZM278.824 47.5234Q278.371 47.7734 277.628 47.7734Q275.527 47.7734 275.527 45.4297L275.527 40.6953L274.152 40.6953L274.152 39.6016L275.527 39.6016L275.527 37.6484L276.808 37.2344L276.808 39.6016L278.824 39.6016L278.824 40.6953L276.808 40.6953L276.808 45.2031Q276.808 46.0078 277.082 46.3516Q277.355 46.6953 277.988 46.6953Q278.472 46.6953 278.824 46.4297L278.824 47.5234ZM11.6749 46.668Q12.7335 47.7891 14.5069 47.7891Q16.3273 47.7891 17.4093 46.6367Q18.4913 45.4844 18.4913 43.5703Q18.4913 41.6172 17.4874 40.5156Q16.4835 39.4141 14.6944 39.4141Q12.8194 39.4141 11.7179 40.5469Q10.6163 41.6797 10.6163 43.6953Q10.6163 45.5469 11.6749 46.668ZM25.8138 46.668Q26.8724 47.7891 28.6458 47.7891Q30.4661 47.7891 31.5482 46.6367Q32.6302 45.4844 32.6302 43.5703Q32.6302 41.6172 31.6263 40.5156Q30.6224 39.4141 28.8333 39.4141Q26.9583 39.4141 25.8568 40.5469Q24.7552 41.6797 24.7552 43.6953Q24.7552 45.5469 25.8138 46.668ZM61.987 47.6016L60.7057 47.6016L60.7057 43.0078Q60.7057 41.6797 60.2956 41.0859Q59.8854 40.4922 58.9167 40.4922Q58.0963 40.4922 57.5221 41.2422Q56.9479 41.9922 56.9479 43.0391L56.9479 47.6016L55.6667 47.6016L55.6667 42.8516Q55.6667 40.4922 53.8463 40.4922Q53.0026 40.4922 52.4557 41.1992Q51.9088 41.9063 51.9088 43.0391L51.9088 47.6016L50.6276 47.6016L50.6276 39.6016L51.9088 39.6016L51.9088 40.8672L51.9401 40.8672Q52.7917 39.4141 54.4245 39.4141Q55.2448 39.4141 55.8542 39.8711Q56.4635 40.3281 56.6901 41.0703Q57.5807 39.4141 59.3463 39.4141Q61.987 39.4141 61.987 42.6719L61.987 47.6016ZM70.5173 46.4453L70.5486 46.4453Q71.3923 47.7891 72.947 47.7891Q74.6423 47.7891 75.6189 46.582Q76.5955 45.375 76.5955 43.3672Q76.5955 41.5625 75.7283 40.4883Q74.8611 39.4141 73.3142 39.4141Q71.4939 39.4141 70.5486 41.0078L70.5173 41.0078L70.5173 39.6016L69.2361 39.6016L69.2361 51.2813L70.5173 51.2813L70.5173 46.4453ZM85.5165 43.9219L79.868 43.9219Q79.8993 45.2578 80.5868 45.9844Q81.2743 46.7109 82.4774 46.7109Q83.829 46.7109 84.9618 45.8203L84.9618 47.0234Q83.9071 47.7891 82.1727 47.7891Q80.4774 47.7891 79.5087 46.6992Q78.5399 45.6094 78.5399 43.6328Q78.5399 41.7656 79.5985 40.5898Q80.6571 39.4141 82.2274 39.4141Q83.7977 39.4141 84.6571 40.4297Q85.5165 41.4453 85.5165 43.25L85.5165 43.9219ZM100.139 43.9219L105.787 43.9219L105.787 43.25Q105.787 41.4453 104.928 40.4297Q104.069 39.4141 102.498 39.4141Q100.928 39.4141 99.8693 40.5898Q98.8107 41.7656 98.8107 43.6328Q98.8107 45.6094 99.7795 46.6992Q100.748 47.7891 102.444 47.7891Q104.178 47.7891 105.233 47.0234L105.233 45.8203Q104.1 46.7109 102.748 46.7109Q101.545 46.7109 100.858 45.9844Q100.17 45.2578 100.139 43.9219ZM114.957 43.9219L120.606 43.9219L120.606 43.25Q120.606 41.4453 119.747 40.4297Q118.887 39.4141 117.317 39.4141Q115.747 39.4141 114.688 40.5898Q113.629 41.7656 113.629 43.6328Q113.629 45.6094 114.598 46.6992Q115.567 47.7891 117.262 47.7891Q118.997 47.7891 120.051 47.0234L120.051 45.8203Q118.918 46.7109 117.567 46.7109Q116.364 46.7109 115.676 45.9844Q114.989 45.2578 114.957 43.9219ZM129.628 47.6016L128.347 47.6016L128.347 43.0391Q128.347 40.4922 126.488 40.4922Q125.527 40.4922 124.898 41.2148Q124.269 41.9375 124.269 43.0391L124.269 47.6016L122.988 47.6016L122.988 39.6016L124.269 39.6016L124.269 40.9297L124.3 40.9297Q125.207 39.4141 126.925 39.4141Q128.238 39.4141 128.933 40.2617Q129.628 41.1094 129.628 42.7109L129.628 47.6016ZM146.188 45.9375L146.188 47.3125Q147.095 47.7891 148.329 47.7891Q148.954 47.7891 149.524 47.6484Q150.095 47.5078 150.532 47.2188Q150.97 46.9297 151.231 46.4922Q151.493 46.0547 151.493 45.4609Q151.493 44.9766 151.333 44.625Q151.173 44.2734 150.876 44.0039Q150.579 43.7344 150.157 43.5195Q149.735 43.3047 149.204 43.1016Q148.806 42.9453 148.493 42.8125Q148.181 42.6797 147.962 42.5156Q147.743 42.3516 147.63 42.1406Q147.516 41.9297 147.516 41.6172Q147.516 41.3672 147.63 41.1602Q147.743 40.9531 147.95 40.8047Q148.157 40.6563 148.446 40.5742Q148.735 40.4922 149.095 40.4922Q150.243 40.4922 151.126 41.0703L151.126 39.7734Q150.306 39.4141 149.266 39.4141Q148.681 39.4141 148.13 39.5625Q147.579 39.7109 147.149 40.0039Q146.72 40.2969 146.462 40.7305Q146.204 41.1641 146.204 41.7266Q146.204 42.1875 146.341 42.5313Q146.477 42.875 146.747 43.1445Q147.016 43.4141 147.419 43.6289Q147.821 43.8438 148.352 44.0547Q148.735 44.2031 149.067 44.3398Q149.399 44.4766 149.645 44.6484Q149.891 44.8203 150.036 45.043Q150.181 45.2656 150.181 45.5859Q150.181 46.7109 148.493 46.7109Q147.235 46.7109 146.188 45.9375ZM180.069 46.9609Q180.069 51.3672 175.85 51.3672Q174.365 51.3672 173.256 50.8047L173.256 49.5234Q174.608 50.2734 175.834 50.2734Q178.787 50.2734 178.787 47.1328L178.787 46.2578L178.756 46.2578Q177.842 47.7891 176.006 47.7891Q174.514 47.7891 173.604 46.7227Q172.694 45.6563 172.694 43.8594Q172.694 41.8203 173.674 40.6172Q174.654 39.4141 176.358 39.4141Q177.975 39.4141 178.756 40.7109L178.787 40.7109L178.787 39.6016L180.069 39.6016L180.069 46.9609ZM187.552 47.6016L188.833 47.6016L188.833 42.3984Q188.833 39.4141 186.013 39.4141Q184.474 39.4141 183.294 40.1641L183.294 41.4766Q184.458 40.4922 185.904 40.4922Q187.552 40.4922 187.552 42.5313L185.154 42.8672Q182.513 43.2344 182.513 45.4766Q182.513 46.5234 183.189 47.1563Q183.865 47.7891 185.06 47.7891Q186.685 47.7891 187.521 46.3516L187.552 46.3516L187.552 47.6016ZM202.863 43.9219L208.511 43.9219L208.511 43.25Q208.511 41.4453 207.652 40.4297Q206.792 39.4141 205.222 39.4141Q203.652 39.4141 202.593 40.5898Q201.535 41.7656 201.535 43.6328Q201.535 45.6094 202.503 46.6992Q203.472 47.7891 205.167 47.7891Q206.902 47.7891 207.957 47.0234L207.957 45.8203Q206.824 46.7109 205.472 46.7109Q204.269 46.7109 203.582 45.9844Q202.894 45.2578 202.863 43.9219ZM212.206 46.4453L212.174 46.4453L212.174 51.2813L210.893 51.2813L210.893 39.6016L212.174 39.6016L212.174 41.0078L212.206 41.0078Q213.151 39.4141 214.971 39.4141Q216.518 39.4141 217.385 40.4883Q218.253 41.5625 218.253 43.3672Q218.253 45.375 217.276 46.582Q216.299 47.7891 214.604 47.7891Q213.049 47.7891 212.206 46.4453ZM221.525 43.9219L227.174 43.9219L227.174 43.25Q227.174 41.4453 226.314 40.4297Q225.455 39.4141 223.885 39.4141Q222.314 39.4141 221.256 40.5898Q220.197 41.7656 220.197 43.6328Q220.197 45.6094 221.166 46.6992Q222.135 47.7891 223.83 47.7891Q225.564 47.7891 226.619 47.0234L226.619 45.8203Q225.486 46.7109 224.135 46.7109Q222.931 46.7109 222.244 45.9844Q221.556 45.2578 221.525 43.9219ZM243.921 47.6016L242.64 47.6016L242.64 46.3516L242.608 46.3516Q241.773 47.7891 240.148 47.7891Q238.952 47.7891 238.276 47.1563Q237.601 46.5234 237.601 45.4766Q237.601 43.2344 240.241 42.8672L242.64 42.5313Q242.64 40.4922 240.991 40.4922Q239.546 40.4922 238.382 41.4766L238.382 40.1641Q239.562 39.4141 241.101 39.4141Q243.921 39.4141 243.921 42.3984L243.921 47.6016ZM262.755 47.6016L261.474 47.6016L261.474 46.3516L261.443 46.3516Q260.607 47.7891 258.982 47.7891Q257.786 47.7891 257.111 47.1563Q256.435 46.5234 256.435 45.4766Q256.435 43.2344 259.075 42.8672L261.474 42.5313Q261.474 40.4922 259.825 40.4922Q258.38 40.4922 257.216 41.4766L257.216 40.1641Q258.396 39.4141 259.935 39.4141Q262.755 39.4141 262.755 42.3984L262.755 47.6016ZM39.2934 40.8984Q38.9575 40.6406 38.3246 40.6406Q37.5043 40.6406 36.9536 41.4141Q36.4028 42.1875 36.4028 43.5234L36.4028 47.6016L35.1215 47.6016L35.1215 39.6016L36.4028 39.6016L36.4028 41.25L36.434 41.25Q36.7075 40.4063 37.27 39.9336Q37.8325 39.4609 38.5278 39.4609Q39.0278 39.4609 39.2934 39.5703L39.2934 40.8984ZM91.1015 40.6406Q91.7344 40.6406 92.0703 40.8984L92.0703 39.5703Q91.8047 39.4609 91.3047 39.4609Q90.6094 39.4609 90.0469 39.9336Q89.4844 40.4063 89.2109 41.25L89.1797 41.25L89.1797 39.6016L87.8984 39.6016L87.8984 47.6016L89.1797 47.6016L89.1797 43.5234Q89.1797 42.1875 89.7305 41.4141Q90.2812 40.6406 91.1015 40.6406ZM112.341 40.8984Q112.005 40.6406 111.372 40.6406Q110.552 40.6406 110.001 41.4141Q109.451 42.1875 109.451 43.5234L109.451 47.6016L108.169 47.6016L108.169 39.6016L109.451 39.6016L109.451 41.25L109.482 41.25Q109.755 40.4063 110.318 39.9336Q110.88 39.4609 111.576 39.4609Q112.076 39.4609 112.341 39.5703L112.341 40.8984ZM200.246 40.8984Q199.911 40.6406 199.278 40.6406Q198.457 40.6406 197.907 41.4141Q197.356 42.1875 197.356 43.5234L197.356 47.6016L196.075 47.6016L196.075 39.6016L197.356 39.6016L197.356 41.25L197.387 41.25Q197.661 40.4063 198.223 39.9336Q198.786 39.4609 199.481 39.4609Q199.981 39.4609 200.246 39.5703L200.246 40.8984ZM46.316 47.6016L47.5972 47.6016L47.5972 39.6016L46.316 39.6016L46.316 44.2109Q46.316 45.3281 45.7105 46.0195Q45.105 46.7109 44.1675 46.7109Q42.23 46.7109 42.23 44.1797L42.23 39.6016L40.9566 39.6016L40.9566 44.3828Q40.9566 47.7891 43.816 47.7891Q45.4878 47.7891 46.2847 46.3359L46.316 46.3359L46.316 47.6016ZM143.635 47.6016L142.353 47.6016L142.353 39.6016L143.635 39.6016L143.635 47.6016ZM168.929 47.6016L170.21 47.6016L170.21 39.6016L168.929 39.6016L168.929 44.2109Q168.929 45.3281 168.323 46.0195Q167.718 46.7109 166.78 46.7109Q164.843 46.7109 164.843 44.1797L164.843 39.6016L163.569 39.6016L163.569 44.3828Q163.569 47.7891 166.429 47.7891Q168.101 47.7891 168.898 46.3359L168.929 46.3359L168.929 47.6016ZM270.801 47.6016L272.082 47.6016L272.082 39.6016L270.801 39.6016L270.801 44.2109Q270.801 45.3281 270.196 46.0195Q269.59 46.7109 268.653 46.7109Q266.715 46.7109 266.715 44.1797L266.715 39.6016L265.442 39.6016L265.442 44.3828Q265.442 47.7891 268.301 47.7891Q269.973 47.7891 270.77 46.3359L270.801 46.3359L270.801 47.6016ZM6.84375 42.8047L6.84375 43.9844Q6.84375 45.1641 6.17578 45.9375Q5.50781 46.7109 4.4375 46.7109Q3.35156 46.7109 2.70703 45.9102Q2.0625 45.1094 2.0625 43.7266Q2.0625 42.2109 2.73438 41.3516Q3.40625 40.4922 4.57813 40.4922Q5.5625 40.4922 6.20313 41.1641Q6.84375 41.8359 6.84375 42.8047ZM12.6476 41.332Q13.3663 40.4922 14.6007 40.4922Q15.8429 40.4922 16.5108 41.3047Q17.1788 42.1172 17.1788 43.6172Q17.1788 45.1016 16.5108 45.9063Q15.8429 46.7109 14.6007 46.7109Q13.3819 46.7109 12.6554 45.8906Q11.9288 45.0703 11.9288 43.6484Q11.9288 42.1719 12.6476 41.332ZM26.7865 41.332Q27.5052 40.4922 28.7396 40.4922Q29.9818 40.4922 30.6497 41.3047Q31.3177 42.1172 31.3177 43.6172Q31.3177 45.1016 30.6497 45.9063Q29.9818 46.7109 28.7396 46.7109Q27.5208 46.7109 26.7943 45.8906Q26.0677 45.0703 26.0677 43.6484Q26.0677 42.1719 26.7865 41.332ZM70.5173 44.3359L70.5173 43.2188Q70.5173 42.0469 71.197 41.2695Q71.8767 40.4922 72.9939 40.4922Q74.0486 40.4922 74.6658 41.25Q75.283 42.0078 75.283 43.3438Q75.283 44.9297 74.6228 45.8203Q73.9627 46.7109 72.7986 46.7109Q71.8064 46.7109 71.1619 46.0195Q70.5173 45.3281 70.5173 44.3359ZM84.204 42.8359Q84.1962 41.7266 83.6688 41.1094Q83.1415 40.4922 82.204 40.4922Q81.2977 40.4922 80.6649 41.1406Q80.0321 41.7891 79.8837 42.8359L84.204 42.8359ZM103.94 41.1094Q104.467 41.7266 104.475 42.8359L100.154 42.8359Q100.303 41.7891 100.936 41.1406Q101.569 40.4922 102.475 40.4922Q103.412 40.4922 103.94 41.1094ZM118.758 41.1094Q119.286 41.7266 119.293 42.8359L114.973 42.8359Q115.122 41.7891 115.754 41.1406Q116.387 40.4922 117.293 40.4922Q118.231 40.4922 118.758 41.1094ZM138.034 42.8047L138.034 43.9844Q138.034 45.1641 137.366 45.9375Q136.698 46.7109 135.628 46.7109Q134.542 46.7109 133.897 45.9102Q133.253 45.1094 133.253 43.7266Q133.253 42.2109 133.924 41.3516Q134.596 40.4922 135.768 40.4922Q136.753 40.4922 137.393 41.1641Q138.034 41.8359 138.034 42.8047ZM178.787 43.9844L178.787 42.8047Q178.787 41.8516 178.143 41.1719Q177.498 40.4922 176.537 40.4922Q175.35 40.4922 174.678 41.3555Q174.006 42.2188 174.006 43.7734Q174.006 45.1094 174.651 45.9102Q175.295 46.7109 176.358 46.7109Q177.436 46.7109 178.112 45.9453Q178.787 45.1797 178.787 43.9844ZM206.664 41.1094Q207.191 41.7266 207.199 42.8359L202.878 42.8359Q203.027 41.7891 203.66 41.1406Q204.292 40.4922 205.199 40.4922Q206.136 40.4922 206.664 41.1094ZM212.174 43.2188L212.174 44.3359Q212.174 45.3281 212.819 46.0195Q213.464 46.7109 214.456 46.7109Q215.62 46.7109 216.28 45.8203Q216.94 44.9297 216.94 43.3438Q216.94 42.0078 216.323 41.25Q215.706 40.4922 214.651 40.4922Q213.534 40.4922 212.854 41.2695Q212.174 42.0469 212.174 43.2188ZM225.326 41.1094Q225.853 41.7266 225.861 42.8359L221.541 42.8359Q221.689 41.7891 222.322 41.1406Q222.955 40.4922 223.861 40.4922Q224.799 40.4922 225.326 41.1094ZM185.622 43.8203L187.552 43.5547L187.552 44.3516Q187.552 45.375 186.931 46.043Q186.31 46.7109 185.357 46.7109Q184.661 46.7109 184.243 46.3398Q183.825 45.9688 183.825 45.3828Q183.825 44.5781 184.279 44.2617Q184.732 43.9453 185.622 43.8203ZM242.64 43.5547L240.71 43.8203Q239.819 43.9453 239.366 44.2617Q238.913 44.5781 238.913 45.3828Q238.913 45.9688 239.331 46.3398Q239.749 46.7109 240.444 46.7109Q241.398 46.7109 242.019 46.043Q242.64 45.375 242.64 44.3516L242.64 43.5547ZM261.474 43.5547L259.544 43.8203Q258.654 43.9453 258.2 44.2617Q257.747 44.5781 257.747 45.3828Q257.747 45.9688 258.165 46.3398Q258.583 46.7109 259.279 46.7109Q260.232 46.7109 260.853 46.043Q261.474 45.375 261.474 44.3516L261.474 43.5547ZM280.811 47.5156Q281.065 47.7734 281.424 47.7734Q281.792 47.7734 282.049 47.5156Q282.307 47.2578 282.307 46.8984Q282.307 46.5391 282.049 46.2773Q281.792 46.0156 281.424 46.0156Q281.065 46.0156 280.811 46.2773Q280.557 46.5391 280.557 46.8984Q280.557 47.2578 280.811 47.5156Z" />
        </g>
        <g id="Blanditiis-quos-in-minus.-Voluptatum" fill="#37474F" fill-opacity="0.721568644">
          <path d="M10.9132 75.6016L12.1944 75.6016L12.1944 63.7578L10.9132 63.7578L10.9132 75.6016ZM40.145 75.6016L38.8637 75.6016L38.8637 74.2422L38.8325 74.2422Q37.9418 75.7891 36.0825 75.7891Q34.5746 75.7891 33.6723 74.7148Q32.77 73.6406 32.77 71.7891Q32.77 69.8047 33.77 68.6094Q34.77 67.4141 36.434 67.4141Q38.0825 67.4141 38.8325 68.7109L38.8637 68.7109L38.8637 63.7578L40.145 63.7578L40.145 75.6016ZM207.182 75.6016L205.901 75.6016L205.901 63.7578L207.182 63.7578L207.182 75.6016ZM43.2535 65.3359Q43.4957 65.5703 43.8394 65.5703Q44.191 65.5703 44.4371 65.3281Q44.6832 65.0859 44.6832 64.7422Q44.6832 64.3828 44.4371 64.1445Q44.191 63.9063 43.8394 63.9063Q43.4957 63.9063 43.2535 64.1445Q43.0113 64.3828 43.0113 64.7422Q43.0113 65.1016 43.2535 65.3359ZM53.4392 65.3359Q53.6814 65.5703 54.0252 65.5703Q54.3767 65.5703 54.6228 65.3281Q54.8689 65.0859 54.8689 64.7422Q54.8689 64.3828 54.6228 64.1445Q54.3767 63.9063 54.0252 63.9063Q53.6814 63.9063 53.4392 64.1445Q53.197 64.3828 53.197 64.7422Q53.197 65.1016 53.4392 65.3359ZM58.3446 65.5703Q58.0009 65.5703 57.7587 65.3359Q57.5165 65.1016 57.5165 64.7422Q57.5165 64.3828 57.7587 64.1445Q58.0009 63.9063 58.3446 63.9063Q58.6962 63.9063 58.9423 64.1445Q59.1884 64.3828 59.1884 64.7422Q59.1884 65.0859 58.9423 65.3281Q58.6962 65.5703 58.3446 65.5703ZM115.082 65.5703Q114.738 65.5703 114.496 65.3359Q114.253 65.1016 114.253 64.7422Q114.253 64.3828 114.496 64.1445Q114.738 63.9063 115.082 63.9063Q115.433 63.9063 115.679 64.1445Q115.925 64.3828 115.925 64.7422Q115.925 65.0859 115.679 65.3281Q115.433 65.5703 115.082 65.5703ZM146.923 65.3359Q147.165 65.5703 147.509 65.5703Q147.86 65.5703 148.106 65.3281Q148.352 65.0859 148.352 64.7422Q148.352 64.3828 148.106 64.1445Q147.86 63.9063 147.509 63.9063Q147.165 63.9063 146.923 64.1445Q146.681 64.3828 146.681 64.7422Q146.681 65.1016 146.923 65.3359ZM1.46875 64.3984L1.46875 75.6016L4.73438 75.6016Q6.30469 75.6016 7.33594 74.7109Q8.36719 73.8203 8.36719 72.3828Q8.36719 71.2266 7.6875 70.5039Q7.00781 69.7813 5.875 69.6484L5.875 69.6172Q6.78125 69.3203 7.29688 68.6172Q7.8125 67.9141 7.8125 66.9609Q7.8125 65.8203 6.96094 65.1094Q6.10938 64.3984 4.65625 64.3984L1.46875 64.3984ZM194.2 64.3984L190.051 75.6016L188.606 75.6016L184.543 64.3984L186.004 64.3984L189.106 73.2813Q189.254 73.7109 189.332 74.2734L189.364 74.2734Q189.426 73.8047 189.621 73.2656L192.786 64.3984L194.2 64.3984ZM51.2135 75.5234Q50.7604 75.7734 50.0182 75.7734Q47.9167 75.7734 47.9167 73.4297L47.9167 68.6953L46.5417 68.6953L46.5417 67.6016L47.9167 67.6016L47.9167 65.6484L49.1979 65.2344L49.1979 67.6016L51.2135 67.6016L51.2135 68.6953L49.1979 68.6953L49.1979 73.2031Q49.1979 74.0078 49.4713 74.3516Q49.7448 74.6953 50.3776 74.6953Q50.862 74.6953 51.2135 74.4297L51.2135 75.5234ZM232.086 75.7734Q232.828 75.7734 233.281 75.5234L233.281 74.4297Q232.93 74.6953 232.445 74.6953Q231.812 74.6953 231.539 74.3516Q231.266 74.0078 231.266 73.2031L231.266 68.6953L233.281 68.6953L233.281 67.6016L231.266 67.6016L231.266 65.2344L229.984 65.6484L229.984 67.6016L228.609 67.6016L228.609 68.6953L229.984 68.6953L229.984 73.4297Q229.984 75.7734 232.086 75.7734ZM246.537 75.7734Q247.279 75.7734 247.733 75.5234L247.733 74.4297Q247.381 74.6953 246.897 74.6953Q246.264 74.6953 245.99 74.3516Q245.717 74.0078 245.717 73.2031L245.717 68.6953L247.733 68.6953L247.733 67.6016L245.717 67.6016L245.717 65.2344L244.436 65.6484L244.436 67.6016L243.061 67.6016L243.061 68.6953L244.436 68.6953L244.436 73.4297Q244.436 75.7734 246.537 75.7734ZM2.78125 69.2031L2.78125 65.5859L4.28906 65.5859Q6.4375 65.5859 6.4375 67.2188Q6.4375 68.1641 5.82031 68.6836Q5.20313 69.2031 4.125 69.2031L2.78125 69.2031ZM20.9592 75.6016L19.6779 75.6016L19.6779 74.3516L19.6467 74.3516Q18.8108 75.7891 17.1858 75.7891Q15.9904 75.7891 15.3147 75.1563Q14.6389 74.5234 14.6389 73.4766Q14.6389 71.2344 17.2795 70.8672L19.6779 70.5313Q19.6779 68.4922 18.0295 68.4922Q16.5842 68.4922 15.4201 69.4766L15.4201 68.1641Q16.5998 67.4141 18.1389 67.4141Q20.9592 67.4141 20.9592 70.3984L20.9592 75.6016ZM29.1771 75.6016L30.4583 75.6016L30.4583 70.7109Q30.4583 69.1094 29.763 68.2617Q29.0677 67.4141 27.7552 67.4141Q26.0365 67.4141 25.1302 68.9297L25.099 68.9297L25.099 67.6016L23.8177 67.6016L23.8177 75.6016L25.099 75.6016L25.099 71.0391Q25.099 69.9375 25.7279 69.2148Q26.3568 68.4922 27.3177 68.4922Q29.1771 68.4922 29.1771 71.0391L29.1771 75.6016ZM61.5234 73.9375L61.5234 75.3125Q62.4297 75.7891 63.6641 75.7891Q64.289 75.7891 64.8594 75.6484Q65.4297 75.5078 65.8672 75.2188Q66.3047 74.9297 66.5664 74.4922Q66.8281 74.0547 66.8281 73.4609Q66.8281 72.9766 66.668 72.625Q66.5078 72.2734 66.2109 72.0039Q65.914 71.7344 65.4922 71.5195Q65.0703 71.3047 64.539 71.1016Q64.1406 70.9453 63.8281 70.8125Q63.5156 70.6797 63.2969 70.5156Q63.0781 70.3516 62.9648 70.1406Q62.8516 69.9297 62.8516 69.6172Q62.8516 69.3672 62.9648 69.1602Q63.0781 68.9531 63.2851 68.8047Q63.4922 68.6563 63.7812 68.5742Q64.0703 68.4922 64.4297 68.4922Q65.5781 68.4922 66.4609 69.0703L66.4609 67.7734Q65.6406 67.4141 64.6015 67.4141Q64.0156 67.4141 63.4648 67.5625Q62.9141 67.7109 62.4844 68.0039Q62.0547 68.2969 61.7969 68.7305Q61.5391 69.1641 61.5391 69.7266Q61.5391 70.1875 61.6758 70.5313Q61.8125 70.875 62.082 71.1445Q62.3516 71.4141 62.7539 71.6289Q63.1562 71.8438 63.6875 72.0547Q64.0703 72.2031 64.4023 72.3398Q64.7344 72.4766 64.9805 72.6484Q65.2265 72.8203 65.3711 73.043Q65.5156 73.2656 65.5156 73.5859Q65.5156 74.7109 63.8281 74.7109Q62.5703 74.7109 61.5234 73.9375ZM80.4522 79.2813L79.171 79.2813L79.171 74.2266L79.1397 74.2266Q78.3038 75.7891 76.4054 75.7891Q74.8976 75.7891 73.9874 74.7148Q73.0772 73.6406 73.0772 71.7891Q73.0772 69.7969 74.0772 68.6055Q75.0772 67.4141 76.7647 67.4141Q78.4054 67.4141 79.1397 68.7109L79.171 68.7109L79.171 67.6016L80.4522 67.6016L80.4522 79.2813ZM96.3333 75.7891Q94.5599 75.7891 93.5013 74.668Q92.4427 73.5469 92.4427 71.6953Q92.4427 69.6797 93.5443 68.5469Q94.6458 67.4141 96.5208 67.4141Q98.3099 67.4141 99.3138 68.5156Q100.318 69.6172 100.318 71.5703Q100.318 73.4844 99.2357 74.6367Q98.1536 75.7891 96.3333 75.7891ZM102.325 73.9375L102.325 75.3125Q103.231 75.7891 104.465 75.7891Q105.09 75.7891 105.661 75.6484Q106.231 75.5078 106.668 75.2188Q107.106 74.9297 107.368 74.4922Q107.629 74.0547 107.629 73.4609Q107.629 72.9766 107.469 72.625Q107.309 72.2734 107.012 72.0039Q106.715 71.7344 106.293 71.5195Q105.872 71.3047 105.34 71.1016Q104.942 70.9453 104.629 70.8125Q104.317 70.6797 104.098 70.5156Q103.879 70.3516 103.766 70.1406Q103.653 69.9297 103.653 69.6172Q103.653 69.3672 103.766 69.1602Q103.879 68.9531 104.086 68.8047Q104.293 68.6563 104.582 68.5742Q104.872 68.4922 105.231 68.4922Q106.379 68.4922 107.262 69.0703L107.262 67.7734Q106.442 67.4141 105.403 67.4141Q104.817 67.4141 104.266 67.5625Q103.715 67.7109 103.286 68.0039Q102.856 68.2969 102.598 68.7305Q102.34 69.1641 102.34 69.7266Q102.34 70.1875 102.477 70.5313Q102.614 70.875 102.883 71.1445Q103.153 71.4141 103.555 71.6289Q103.957 71.8438 104.489 72.0547Q104.872 72.2031 105.204 72.3398Q105.536 72.4766 105.782 72.6484Q106.028 72.8203 106.172 73.043Q106.317 73.2656 106.317 73.5859Q106.317 74.7109 104.629 74.7109Q103.372 74.7109 102.325 73.9375ZM124.104 75.6016L125.385 75.6016L125.385 70.7109Q125.385 69.1094 124.69 68.2617Q123.995 67.4141 122.682 67.4141Q120.964 67.4141 120.057 68.9297L120.026 68.9297L120.026 67.6016L118.745 67.6016L118.745 75.6016L120.026 75.6016L120.026 71.0391Q120.026 69.9375 120.655 69.2148Q121.284 68.4922 122.245 68.4922Q124.104 68.4922 124.104 71.0391L124.104 75.6016ZM143.986 75.6016L142.705 75.6016L142.705 71.0078Q142.705 69.6797 142.295 69.0859Q141.885 68.4922 140.916 68.4922Q140.095 68.4922 139.521 69.2422Q138.947 69.9922 138.947 71.0391L138.947 75.6016L137.666 75.6016L137.666 70.8516Q137.666 68.4922 135.845 68.4922Q135.002 68.4922 134.455 69.1992Q133.908 69.9063 133.908 71.0391L133.908 75.6016L132.627 75.6016L132.627 67.6016L133.908 67.6016L133.908 68.8672L133.939 68.8672Q134.791 67.4141 136.424 67.4141Q137.244 67.4141 137.853 67.8711Q138.463 68.3281 138.689 69.0703Q139.58 67.4141 141.345 67.4141Q143.986 67.4141 143.986 70.6719L143.986 75.6016ZM157.812 75.6016L156.531 75.6016L156.531 71.0391Q156.531 68.4922 154.672 68.4922Q153.711 68.4922 153.082 69.2148Q152.453 69.9375 152.453 71.0391L152.453 75.6016L151.172 75.6016L151.172 67.6016L152.453 67.6016L152.453 68.9297L152.484 68.9297Q153.391 67.4141 155.109 67.4141Q156.422 67.4141 157.117 68.2617Q157.812 69.1094 157.812 70.7109L157.812 75.6016ZM169.686 75.3125L169.686 73.9375Q170.733 74.7109 171.99 74.7109Q173.678 74.7109 173.678 73.5859Q173.678 73.2656 173.533 73.043Q173.389 72.8203 173.143 72.6484Q172.897 72.4766 172.565 72.3398Q172.233 72.2031 171.85 72.0547Q171.319 71.8438 170.916 71.6289Q170.514 71.4141 170.244 71.1445Q169.975 70.875 169.838 70.5313Q169.701 70.1875 169.701 69.7266Q169.701 69.1641 169.959 68.7305Q170.217 68.2969 170.647 68.0039Q171.076 67.7109 171.627 67.5625Q172.178 67.4141 172.764 67.4141Q173.803 67.4141 174.623 67.7734L174.623 69.0703Q173.74 68.4922 172.592 68.4922Q172.233 68.4922 171.944 68.5742Q171.654 68.6563 171.447 68.8047Q171.24 68.9531 171.127 69.1602Q171.014 69.3672 171.014 69.6172Q171.014 69.9297 171.127 70.1406Q171.24 70.3516 171.459 70.5156Q171.678 70.6797 171.99 70.8125Q172.303 70.9453 172.701 71.1016Q173.233 71.3047 173.654 71.5195Q174.076 71.7344 174.373 72.0039Q174.67 72.2734 174.83 72.625Q174.99 72.9766 174.99 73.4609Q174.99 74.0547 174.729 74.4922Q174.467 74.9297 174.029 75.2188Q173.592 75.5078 173.022 75.6484Q172.451 75.7891 171.826 75.7891Q170.592 75.7891 169.686 75.3125ZM196.593 74.668Q197.652 75.7891 199.425 75.7891Q201.246 75.7891 202.328 74.6367Q203.41 73.4844 203.41 71.5703Q203.41 69.6172 202.406 68.5156Q201.402 67.4141 199.613 67.4141Q197.738 67.4141 196.636 68.5469Q195.535 69.6797 195.535 71.6953Q195.535 73.5469 196.593 74.668ZM221.032 74.4453L221.001 74.4453L221.001 79.2813L219.72 79.2813L219.72 67.6016L221.001 67.6016L221.001 69.0078L221.032 69.0078Q221.977 67.4141 223.798 67.4141Q225.345 67.4141 226.212 68.4883Q227.079 69.5625 227.079 71.3672Q227.079 73.375 226.102 74.582Q225.126 75.7891 223.431 75.7891Q221.876 75.7891 221.032 74.4453ZM241.163 75.6016L239.882 75.6016L239.882 74.3516L239.851 74.3516Q239.015 75.7891 237.39 75.7891Q236.194 75.7891 235.519 75.1563Q234.843 74.5234 234.843 73.4766Q234.843 71.2344 237.483 70.8672L239.882 70.5313Q239.882 68.4922 238.233 68.4922Q236.788 68.4922 235.624 69.4766L235.624 68.1641Q236.804 67.4141 238.343 67.4141Q241.163 67.4141 241.163 70.3984L241.163 75.6016ZM269.465 75.6016L270.746 75.6016L270.746 70.6719Q270.746 67.4141 268.106 67.4141Q266.34 67.4141 265.45 69.0703Q265.223 68.3281 264.614 67.8711Q264.004 67.4141 263.184 67.4141Q261.551 67.4141 260.7 68.8672L260.668 68.8672L260.668 67.6016L259.387 67.6016L259.387 75.6016L260.668 75.6016L260.668 71.0391Q260.668 69.9063 261.215 69.1992Q261.762 68.4922 262.606 68.4922Q264.426 68.4922 264.426 70.8516L264.426 75.6016L265.707 75.6016L265.707 71.0391Q265.707 69.9922 266.282 69.2422Q266.856 68.4922 267.676 68.4922Q268.645 68.4922 269.055 69.0859Q269.465 69.6797 269.465 71.0078L269.465 75.6016ZM43.1832 75.6016L44.4644 75.6016L44.4644 67.6016L43.1832 67.6016L43.1832 75.6016ZM53.3689 75.6016L54.6502 75.6016L54.6502 67.6016L53.3689 67.6016L53.3689 75.6016ZM58.9696 75.6016L57.6884 75.6016L57.6884 67.6016L58.9696 67.6016L58.9696 75.6016ZM88.6779 75.6016L89.9592 75.6016L89.9592 67.6016L88.6779 67.6016L88.6779 72.2109Q88.6779 73.3281 88.0725 74.0195Q87.467 74.7109 86.5295 74.7109Q84.592 74.7109 84.592 72.1797L84.592 67.6016L83.3186 67.6016L83.3186 72.3828Q83.3186 75.7891 86.1779 75.7891Q87.8498 75.7891 88.6467 74.3359L88.6779 74.3359L88.6779 75.6016ZM115.707 75.6016L114.425 75.6016L114.425 67.6016L115.707 67.6016L115.707 75.6016ZM146.852 75.6016L148.134 75.6016L148.134 67.6016L146.852 67.6016L146.852 75.6016ZM165.858 75.6016L167.14 75.6016L167.14 67.6016L165.858 67.6016L165.858 72.2109Q165.858 73.3281 165.253 74.0195Q164.648 74.7109 163.71 74.7109Q161.773 74.7109 161.773 72.1797L161.773 67.6016L160.499 67.6016L160.499 72.3828Q160.499 75.7891 163.358 75.7891Q165.03 75.7891 165.827 74.3359L165.858 74.3359L165.858 75.6016ZM215.408 75.6016L216.689 75.6016L216.689 67.6016L215.408 67.6016L215.408 72.2109Q215.408 73.3281 214.802 74.0195Q214.197 74.7109 213.26 74.7109Q211.322 74.7109 211.322 72.1797L211.322 67.6016L210.049 67.6016L210.049 72.3828Q210.049 75.7891 212.908 75.7891Q214.58 75.7891 215.377 74.3359L215.408 74.3359L215.408 75.6016ZM256.357 75.6016L255.075 75.6016L255.075 74.3359L255.044 74.3359Q254.247 75.7891 252.575 75.7891Q249.716 75.7891 249.716 72.3828L249.716 67.6016L250.99 67.6016L250.99 72.1797Q250.99 74.7109 252.927 74.7109Q253.865 74.7109 254.47 74.0195Q255.075 73.3281 255.075 72.2109L255.075 67.6016L256.357 67.6016L256.357 75.6016ZM38.8637 71.9844L38.8637 70.8047Q38.8637 69.8359 38.2231 69.1641Q37.5825 68.4922 36.5981 68.4922Q35.4262 68.4922 34.7543 69.3516Q34.0825 70.2109 34.0825 71.7266Q34.0825 73.1094 34.727 73.9102Q35.3715 74.7109 36.4575 74.7109Q37.5278 74.7109 38.1957 73.9375Q38.8637 73.1641 38.8637 71.9844ZM79.171 72L79.171 70.8359Q79.171 69.8516 78.5265 69.1719Q77.8819 68.4922 76.8897 68.4922Q75.7335 68.4922 75.0616 69.3477Q74.3897 70.2031 74.3897 71.7578Q74.3897 73.1406 75.0382 73.9258Q75.6866 74.7109 76.7101 74.7109Q77.8351 74.7109 78.503 73.9414Q79.171 73.1719 79.171 72ZM96.4271 68.4922Q95.1927 68.4922 94.4739 69.332Q93.7552 70.1719 93.7552 71.6484Q93.7552 73.0703 94.4818 73.8906Q95.2083 74.7109 96.4271 74.7109Q97.6693 74.7109 98.3372 73.9063Q99.0052 73.1016 99.0052 71.6172Q99.0052 70.1172 98.3372 69.3047Q97.6693 68.4922 96.4271 68.4922ZM197.566 69.332Q198.285 68.4922 199.519 68.4922Q200.761 68.4922 201.429 69.3047Q202.097 70.1172 202.097 71.6172Q202.097 73.1016 201.429 73.9063Q200.761 74.7109 199.519 74.7109Q198.3 74.7109 197.574 73.8906Q196.847 73.0703 196.847 71.6484Q196.847 70.1719 197.566 69.332ZM221.001 71.2188L221.001 72.3359Q221.001 73.3281 221.645 74.0195Q222.29 74.7109 223.282 74.7109Q224.446 74.7109 225.106 73.8203Q225.766 72.9297 225.766 71.3438Q225.766 70.0078 225.149 69.25Q224.532 68.4922 223.477 68.4922Q222.36 68.4922 221.681 69.2695Q221.001 70.0469 221.001 71.2188ZM2.78125 74.4141L2.78125 70.3828L4.28906 70.3828Q6.99219 70.3828 6.99219 72.3672Q6.99219 73.3203 6.35547 73.8672Q5.71875 74.4141 4.5625 74.4141L2.78125 74.4141ZM19.6779 71.5547L17.7483 71.8203Q16.8576 71.9453 16.4045 72.2617Q15.9514 72.5781 15.9514 73.3828Q15.9514 73.9688 16.3694 74.3398Q16.7873 74.7109 17.4826 74.7109Q18.4358 74.7109 19.0569 74.043Q19.6779 73.375 19.6779 72.3516L19.6779 71.5547ZM239.882 71.5547L237.952 71.8203Q237.062 71.9453 236.608 72.2617Q236.155 72.5781 236.155 73.3828Q236.155 73.9688 236.573 74.3398Q236.991 74.7109 237.687 74.7109Q238.64 74.7109 239.261 74.043Q239.882 73.375 239.882 72.3516L239.882 71.5547ZM177.236 75.5156Q177.49 75.7734 177.849 75.7734Q178.216 75.7734 178.474 75.5156Q178.732 75.2578 178.732 74.8984Q178.732 74.5391 178.474 74.2773Q178.216 74.0156 177.849 74.0156Q177.49 74.0156 177.236 74.2773Q176.982 74.5391 176.982 74.8984Q176.982 75.2578 177.236 75.5156Z" />
        </g>
      </g>
      <g id="Career-Counselling" fill="#37474F">
        <path d="M156.199 26.9023L158.121 26.9023L158.121 9.13672L156.199 9.13672L156.199 26.9023ZM163.934 26.9023L162.012 26.9023L162.012 9.13672L163.934 9.13672L163.934 26.9023ZM167.93 11.5039Q168.293 11.8555 168.809 11.8555Q169.336 11.8555 169.705 11.4922Q170.074 11.1289 170.074 10.6133Q170.074 10.0742 169.705 9.7168Q169.336 9.35938 168.809 9.35938Q168.293 9.35938 167.93 9.7168Q167.566 10.0742 167.566 10.6133Q167.566 11.1523 167.93 11.5039ZM13.6406 26.1992Q11.7773 27.1836 9 27.1836Q5.41406 27.1836 3.25781 24.875Q1.10156 22.5664 1.10156 18.8164Q1.10156 14.7852 3.52734 12.3008Q5.95313 9.81641 9.67969 9.81641Q12.0703 9.81641 13.6406 10.5078L13.6406 12.6055Q11.8359 11.5977 9.65625 11.5977Q6.76172 11.5977 4.96289 13.5313Q3.16406 15.4648 3.16406 18.6992Q3.16406 21.7695 4.8457 23.5918Q6.52734 25.4141 9.25781 25.4141Q11.7891 25.4141 13.6406 24.2891L13.6406 26.1992ZM84.4336 27.1836Q87.2109 27.1836 89.0742 26.1992L89.0742 24.2891Q87.2227 25.4141 84.6914 25.4141Q81.9609 25.4141 80.2793 23.5918Q78.5977 21.7695 78.5977 18.6992Q78.5977 15.4648 80.3965 13.5313Q82.1953 11.5977 85.0898 11.5977Q87.2695 11.5977 89.0742 12.6055L89.0742 10.5078Q87.5039 9.81641 85.1133 9.81641Q81.3867 9.81641 78.9609 12.3008Q76.5352 14.7852 76.5352 18.8164Q76.5352 22.5664 78.6914 24.875Q80.8477 27.1836 84.4336 27.1836ZM25.3945 26.9023L23.4727 26.9023L23.4727 25.0273L23.4258 25.0273Q22.1719 27.1836 19.7344 27.1836Q17.9414 27.1836 16.9277 26.2344Q15.9141 25.2852 15.9141 23.7148Q15.9141 20.3516 19.875 19.8008L23.4727 19.2969Q23.4727 16.2383 21 16.2383Q18.832 16.2383 17.0859 17.7148L17.0859 15.7461Q18.8555 14.6211 21.1641 14.6211Q25.3945 14.6211 25.3945 19.0977L25.3945 26.9023ZM47.0039 21.3828L38.5313 21.3828Q38.5781 23.3867 39.6094 24.4766Q40.6406 25.5664 42.4453 25.5664Q44.4727 25.5664 46.1719 24.2305L46.1719 26.0352Q44.5898 27.1836 41.9883 27.1836Q39.4453 27.1836 37.9922 25.5488Q36.5391 23.9141 36.5391 20.9492Q36.5391 18.1484 38.127 16.3848Q39.7148 14.6211 42.0703 14.6211Q44.4258 14.6211 45.7148 16.1445Q47.0039 17.668 47.0039 20.375L47.0039 21.3828ZM51.082 21.3828L59.5547 21.3828L59.5547 20.375Q59.5547 17.668 58.2656 16.1445Q56.9766 14.6211 54.6211 14.6211Q52.2656 14.6211 50.6777 16.3848Q49.0898 18.1484 49.0898 20.9492Q49.0898 23.9141 50.543 25.5488Q51.9961 27.1836 54.5391 27.1836Q57.1406 27.1836 58.7227 26.0352L58.7227 24.2305Q57.0234 25.5664 54.9961 25.5664Q53.1914 25.5664 52.1602 24.4766Q51.1289 23.3867 51.082 21.3828ZM97.2539 27.1836Q94.5938 27.1836 93.0059 25.502Q91.418 23.8203 91.418 21.043Q91.418 18.0195 93.0703 16.3203Q94.7227 14.6211 97.5352 14.6211Q100.219 14.6211 101.725 16.2734Q103.23 17.9258 103.23 20.8555Q103.23 23.7266 101.607 25.4551Q99.9844 27.1836 97.2539 27.1836ZM129.844 26.9023L127.922 26.9023L127.922 20.0586Q127.922 16.2383 125.133 16.2383Q123.691 16.2383 122.748 17.3223Q121.805 18.4063 121.805 20.0586L121.805 26.9023L119.883 26.9023L119.883 14.9023L121.805 14.9023L121.805 16.8945L121.852 16.8945Q123.211 14.6211 125.789 14.6211Q127.758 14.6211 128.801 15.8926Q129.844 17.1641 129.844 19.5664L129.844 26.9023ZM132.738 24.4063L132.738 26.4688Q134.098 27.1836 135.949 27.1836Q136.887 27.1836 137.742 26.9727Q138.598 26.7617 139.254 26.3281Q139.91 25.8945 140.303 25.2383Q140.695 24.582 140.695 23.6914Q140.695 22.9648 140.455 22.4375Q140.215 21.9102 139.77 21.5059Q139.324 21.1016 138.691 20.7793Q138.059 20.457 137.262 20.1523Q136.664 19.918 136.195 19.7188Q135.727 19.5195 135.398 19.2734Q135.07 19.0273 134.9 18.7109Q134.73 18.3945 134.73 17.9258Q134.73 17.5508 134.9 17.2402Q135.07 16.9297 135.381 16.707Q135.691 16.4844 136.125 16.3613Q136.559 16.2383 137.098 16.2383Q138.82 16.2383 140.145 17.1055L140.145 15.1602Q138.914 14.6211 137.355 14.6211Q136.477 14.6211 135.65 14.8438Q134.824 15.0664 134.18 15.5059Q133.535 15.9453 133.148 16.5957Q132.762 17.2461 132.762 18.0898Q132.762 18.7813 132.967 19.2969Q133.172 19.8125 133.576 20.2168Q133.98 20.6211 134.584 20.9434Q135.188 21.2656 135.984 21.582Q136.559 21.8047 137.057 22.0098Q137.555 22.2148 137.924 22.4727Q138.293 22.7305 138.51 23.0645Q138.727 23.3984 138.727 23.8789Q138.727 25.5664 136.195 25.5664Q134.309 25.5664 132.738 24.4063ZM153.293 21.3828L144.82 21.3828Q144.867 23.3867 145.898 24.4766Q146.93 25.5664 148.734 25.5664Q150.762 25.5664 152.461 24.2305L152.461 26.0352Q150.879 27.1836 148.277 27.1836Q145.734 27.1836 144.281 25.5488Q142.828 23.9141 142.828 20.9492Q142.828 18.1484 144.416 16.3848Q146.004 14.6211 148.359 14.6211Q150.715 14.6211 152.004 16.1445Q153.293 17.668 153.293 20.375L153.293 21.3828ZM183.598 26.9023L181.676 26.9023L181.676 20.0586Q181.676 16.2383 178.887 16.2383Q177.445 16.2383 176.502 17.3223Q175.559 18.4063 175.559 20.0586L175.559 26.9023L173.637 26.9023L173.637 14.9023L175.559 14.9023L175.559 16.8945L175.605 16.8945Q176.965 14.6211 179.543 14.6211Q181.512 14.6211 182.555 15.8926Q183.598 17.1641 183.598 19.5664L183.598 26.9023ZM191.133 32.5508Q197.461 32.5508 197.461 25.9414L197.461 14.9023L195.539 14.9023L195.539 16.5664L195.492 16.5664Q194.32 14.6211 191.895 14.6211Q189.34 14.6211 187.869 16.4258Q186.398 18.2305 186.398 21.2891Q186.398 23.9844 187.764 25.584Q189.129 27.1836 191.367 27.1836Q194.121 27.1836 195.492 24.8867L195.539 24.8867L195.539 26.1992Q195.539 30.9102 191.109 30.9102Q189.27 30.9102 187.242 29.7852L187.242 31.707Q188.906 32.5508 191.133 32.5508ZM33.8203 16.4609Q34.7695 16.4609 35.2734 16.8477L35.2734 14.8555Q34.875 14.6914 34.125 14.6914Q33.082 14.6914 32.2383 15.4004Q31.3945 16.1094 30.9844 17.375L30.9375 17.375L30.9375 14.9023L29.0156 14.9023L29.0156 26.9023L30.9375 26.9023L30.9375 20.7852Q30.9375 18.7813 31.7637 17.6211Q32.5898 16.4609 33.8203 16.4609ZM68.7188 16.8477Q68.2148 16.4609 67.2656 16.4609Q66.0352 16.4609 65.209 17.6211Q64.3828 18.7813 64.3828 20.7852L64.3828 26.9023L62.4609 26.9023L62.4609 14.9023L64.3828 14.9023L64.3828 17.375L64.4297 17.375Q64.8398 16.1094 65.6836 15.4004Q66.5273 14.6914 67.5703 14.6914Q68.3203 14.6914 68.7188 14.8555L68.7188 16.8477ZM114.082 26.9023L116.004 26.9023L116.004 14.9023L114.082 14.9023L114.082 21.8164Q114.082 23.4922 113.174 24.5293Q112.266 25.5664 110.859 25.5664Q107.953 25.5664 107.953 21.7695L107.953 14.9023L106.043 14.9023L106.043 22.0742Q106.043 27.1836 110.332 27.1836Q112.84 27.1836 114.035 25.0039L114.082 25.0039L114.082 26.9023ZM167.824 26.9023L169.746 26.9023L169.746 14.9023L167.824 14.9023L167.824 26.9023ZM45.0352 19.7539Q45.0234 18.0898 44.2324 17.1641Q43.4414 16.2383 42.0352 16.2383Q40.6758 16.2383 39.7266 17.2109Q38.7773 18.1836 38.5547 19.7539L45.0352 19.7539ZM56.7832 17.1641Q57.5742 18.0898 57.5859 19.7539L51.1055 19.7539Q51.3281 18.1836 52.2773 17.2109Q53.2266 16.2383 54.5859 16.2383Q55.9922 16.2383 56.7832 17.1641ZM97.3945 16.2383Q95.543 16.2383 94.4648 17.498Q93.3867 18.7578 93.3867 20.9727Q93.3867 23.1055 94.4766 24.3359Q95.5664 25.5664 97.3945 25.5664Q99.2578 25.5664 100.26 24.3594Q101.262 23.1523 101.262 20.9258Q101.262 18.6758 100.26 17.457Q99.2578 16.2383 97.3945 16.2383ZM151.324 19.7539Q151.313 18.0898 150.521 17.1641Q149.73 16.2383 148.324 16.2383Q146.965 16.2383 146.016 17.2109Q145.066 18.1836 144.844 19.7539L151.324 19.7539ZM195.539 19.707L195.539 21.4766Q195.539 23.2695 194.525 24.418Q193.512 25.5664 191.895 25.5664Q190.301 25.5664 189.334 24.3652Q188.367 23.1641 188.367 21.1602Q188.367 18.8281 189.375 17.5332Q190.383 16.2383 192.164 16.2383Q193.605 16.2383 194.572 17.2578Q195.539 18.2773 195.539 19.707ZM23.4727 20.832L20.5781 21.2305Q19.2422 21.418 18.5625 21.8926Q17.8828 22.3672 17.8828 23.5742Q17.8828 24.4531 18.5098 25.0098Q19.1367 25.5664 20.1797 25.5664Q21.6094 25.5664 22.541 24.5645Q23.4727 23.5625 23.4727 22.0273L23.4727 20.832Z" />
      </g>
    </g>
    <g id="Group" transform="translate(31 29)">
      <path d="M37.999 0L38.001 0Q38.9338 0 39.8655 0.0457715Q40.7972 0.0915429 41.7256 0.182976Q42.6539 0.274408 43.5766 0.411282Q44.4993 0.548155 45.4142 0.73014Q46.3291 0.912125 47.234 1.13878Q48.1389 1.36544 49.0315 1.63622Q49.9242 1.90701 50.8025 2.22127Q51.6808 2.53553 52.5426 2.8925Q53.4044 3.24948 54.2477 3.64831Q55.0909 4.04714 55.9136 4.48687Q56.7363 4.9266 57.5364 5.40617Q58.3365 5.88574 59.1121 6.40399Q59.8877 6.92223 60.637 7.47792Q61.3862 8.0336 62.1073 8.62538Q62.8284 9.21715 63.5196 9.8436Q64.2107 10.47 64.8703 11.1296Q65.53 11.7893 66.1564 12.4804Q66.7828 13.1716 67.3746 13.8927Q67.9664 14.6138 68.5221 15.363Q69.0778 16.1123 69.596 16.8879Q70.1143 17.6635 70.5938 18.4636Q71.0734 19.2637 71.5131 20.0864Q71.9528 20.9091 72.3517 21.7523Q72.7505 22.5956 73.1075 23.4574Q73.4645 24.3192 73.7787 25.1975Q74.093 26.0758 74.3638 26.9685Q74.6345 27.8611 74.8612 28.766Q75.0879 29.6709 75.2699 30.5858Q75.4518 31.5007 75.5887 32.4234Q75.7256 33.3461 75.817 34.2744Q75.9084 35.2028 75.9542 36.1345Q76 37.0662 76 37.999L76 38.001Q76 38.9338 75.9542 39.8655Q75.9084 40.7972 75.817 41.7256Q75.7256 42.6539 75.5887 43.5766Q75.4518 44.4993 75.2699 45.4142Q75.0879 46.3291 74.8612 47.234Q74.6345 48.1389 74.3638 49.0315Q74.093 49.9242 73.7787 50.8025Q73.4645 51.6808 73.1075 52.5426Q72.7505 53.4044 72.3517 54.2477Q71.9528 55.0909 71.5131 55.9136Q71.0734 56.7363 70.5938 57.5364Q70.1143 58.3365 69.596 59.1121Q69.0778 59.8877 68.5221 60.637Q67.9664 61.3862 67.3746 62.1073Q66.7828 62.8284 66.1564 63.5196Q65.53 64.2107 64.8703 64.8703Q64.2107 65.53 63.5196 66.1564Q62.8284 66.7828 62.1073 67.3746Q61.3862 67.9664 60.637 68.5221Q59.8877 69.0778 59.1121 69.596Q58.3365 70.1143 57.5364 70.5938Q56.7363 71.0734 55.9136 71.5131Q55.0909 71.9528 54.2477 72.3517Q53.4044 72.7505 52.5426 73.1075Q51.6808 73.4645 50.8025 73.7787Q49.9242 74.093 49.0315 74.3638Q48.1389 74.6345 47.234 74.8612Q46.3291 75.0879 45.4142 75.2699Q44.4993 75.4518 43.5766 75.5887Q42.6539 75.7256 41.7256 75.817Q40.7972 75.9084 39.8655 75.9542Q38.9338 76 38.001 76L37.999 76Q37.0662 76 36.1345 75.9542Q35.2028 75.9084 34.2744 75.817Q33.3461 75.7256 32.4234 75.5887Q31.5007 75.4518 30.5858 75.2699Q29.6709 75.0879 28.766 74.8612Q27.8611 74.6345 26.9685 74.3638Q26.0758 74.093 25.1975 73.7787Q24.3192 73.4645 23.4574 73.1075Q22.5956 72.7505 21.7523 72.3517Q20.9091 71.9528 20.0864 71.5131Q19.2637 71.0734 18.4636 70.5938Q17.6635 70.1143 16.8879 69.596Q16.1123 69.0778 15.363 68.5221Q14.6138 67.9664 13.8927 67.3746Q13.1716 66.7828 12.4804 66.1564Q11.7893 65.53 11.1296 64.8703Q10.47 64.2107 9.8436 63.5196Q9.21715 62.8284 8.62538 62.1073Q8.0336 61.3862 7.47792 60.637Q6.92223 59.8877 6.40399 59.1121Q5.88574 58.3365 5.40617 57.5364Q4.9266 56.7363 4.48687 55.9136Q4.04714 55.0909 3.64831 54.2477Q3.24948 53.4044 2.8925 52.5426Q2.53553 51.6808 2.22127 50.8025Q1.90701 49.9242 1.63622 49.0315Q1.36544 48.1389 1.13878 47.234Q0.912125 46.3291 0.73014 45.4142Q0.548155 44.4993 0.411282 43.5766Q0.274408 42.6539 0.182976 41.7256Q0.0915429 40.7972 0.0457715 39.8655Q0 38.9338 0 38.001L0 37.999Q0 37.0662 0.0457715 36.1345Q0.0915429 35.2028 0.182976 34.2744Q0.274408 33.3461 0.411282 32.4234Q0.548155 31.5007 0.73014 30.5858Q0.912125 29.6709 1.13878 28.766Q1.36544 27.8611 1.63622 26.9685Q1.90701 26.0758 2.22127 25.1975Q2.53553 24.3192 2.8925 23.4574Q3.24948 22.5956 3.64831 21.7523Q4.04714 20.9091 4.48687 20.0864Q4.9266 19.2637 5.40617 18.4636Q5.88574 17.6635 6.40399 16.8879Q6.92223 16.1123 7.47792 15.363Q8.0336 14.6138 8.62538 13.8927Q9.21715 13.1716 9.8436 12.4804Q10.47 11.7893 11.1296 11.1296Q11.7893 10.47 12.4804 9.8436Q13.1716 9.21715 13.8927 8.62538Q14.6138 8.0336 15.363 7.47792Q16.1123 6.92223 16.8879 6.40399Q17.6635 5.88574 18.4636 5.40617Q19.2637 4.9266 20.0864 4.48687Q20.9091 4.04714 21.7523 3.64831Q22.5956 3.24948 23.4574 2.8925Q24.3192 2.53553 25.1975 2.22127Q26.0758 1.90701 26.9685 1.63622Q27.8611 1.36544 28.766 1.13878Q29.6709 0.912125 30.5858 0.73014Q31.5007 0.548155 32.4234 0.411282Q33.3461 0.274408 34.2744 0.182976Q35.2028 0.0915429 36.1345 0.0457715Q37.0662 0 37.999 0Z" id="Rectangle" fill="#717CFF" stroke="none" />
      <g id="icon/maps/track_24px" transform="translate(20 19)">
        <path d="M25.1039 5.67249C24.55 6.22639 24.5039 7.08801 24.9962 7.70345C27.2272 10.5037 28.3966 14.3349 27.3503 18.3506C26.1348 23.0434 22.4575 26.5514 17.7955 27.49C9.94864 29.044 3.07105 22.9818 3.07105 15.3965C3.07105 9.11897 7.76381 3.94925 13.8413 3.19533L13.8413 6.30332C9.02547 7.11878 5.48667 11.6269 6.25598 16.812C6.85603 20.8278 10.1948 24.0589 14.226 24.5512C19.8265 25.2436 24.6116 20.8739 24.6116 15.3965C24.6116 13.4732 24.0269 11.7038 23.0268 10.2268C22.5037 9.45747 21.3805 9.41131 20.7189 10.0575L20.7035 10.0729C20.1804 10.596 20.1342 11.4115 20.5343 12.0269C21.4574 13.4425 21.8267 15.258 21.2882 17.1351C20.6881 19.243 18.9187 20.9201 16.7647 21.3971C12.7643 22.2741 9.22549 19.2584 9.22549 15.3965C9.22549 12.5347 11.1949 10.1498 13.8413 9.45747L13.8413 12.7501C12.9182 13.2886 12.3027 14.2579 12.3027 15.3965C12.3027 17.089 13.6875 18.4737 15.3799 18.4737C17.0724 18.4737 18.4571 17.089 18.4571 15.3965C18.4571 14.2579 17.8417 13.2732 16.9185 12.7501L16.9185 1.10282C16.9185 0.502764 16.4262 0.0104088 15.8261 0.0104088C7.57918 -0.297313 0.470804 6.25716 0.0246074 14.4733C-0.529292 24.5512 8.34848 32.6597 18.5033 30.4749C24.4731 29.1978 29.0889 24.6282 30.4275 18.6737C31.5199 13.8117 30.1198 9.19591 27.3965 5.79558C26.8272 5.07243 25.7502 5.02627 25.1039 5.67249Z" transform="translate(3.100013 3.083333)" id="icon/maps/track_24px" fill="#FFFFFF" stroke="none" />
      </g>
    </g>
  </g>
</svg>