<?xml version="1.0" encoding="utf-8"?>
<svg width="16px" height="14px" viewBox="0 0 16 14" version="1.1" xmlns:xlink="http://www.w3.org/1999/xlink" xmlns="http://www.w3.org/2000/svg">
  <desc>Created with Lunacy</desc>
  <defs>
    <path d="M9.211 0.114796C10.5075 -0.140114 11.6718 0.0448076 12.6524 0.518066C12.7059 0.543873 12.7575 0.56989 12.8074 0.596013L13.7683 0.207146C14.7579 -0.193344 15.8038 0.644332 15.6299 1.69698C16.1011 2.21467 16.1759 3.07967 15.539 3.64935L14.5535 4.53091C14.5656 5.61489 14.4169 6.58677 13.9604 7.6701C13.1466 9.60112 11.9797 11.0534 10.552 12.0636C9.54287 12.7776 8.46317 13.2309 7.37506 13.4749C6.67176 13.6326 6.07512 13.6818 5.63612 13.6708C4.29601 13.686 3.06162 13.4025 1.96028 12.9204C1.30499 12.6336 0.82359 12.3372 0.534289 12.1137C-0.511581 11.3058 0.0838452 9.63153 1.40501 9.66538C1.65863 9.67188 1.89619 9.66816 2.11837 9.65527C1.69768 9.15649 1.47438 8.65494 1.38369 8.24222C1.35219 8.09888 1.34433 7.95683 1.3572 7.81967C1.26989 7.71434 1.18851 7.60505 1.11307 7.49199C0.578511 6.69082 0.420788 5.8672 0.465062 5.16395C0.470173 5.09452 0.470173 5.09452 0.474776 5.05295C0.498818 4.84869 0.56444 4.66432 0.660803 4.50463C0.377714 3.60281 0.441976 2.69596 0.708677 1.84216C0.79542 1.56446 0.886741 1.34727 0.960851 1.20151C1.40241 0.333057 2.58481 0.192109 3.21815 0.932432C4.21534 2.09808 5.20031 2.79114 6.13971 3.12697C6.25625 3.16864 6.36821 3.20364 6.47532 3.23265C6.77435 1.34515 8.01677 0.216253 9.211 0.114796ZM2.57878 2.18181C5.33752 5.40658 7.80981 4.83324 7.80981 4.83324C7.52335 2.21772 9.27865 1.85944 9.27886 1.85944C11.1959 1.44739 12.3245 2.46848 12.3245 2.46848L13.8295 1.85944C13.7217 2.50439 12.7901 3.18505 12.7901 3.18505L14.1516 2.93429L12.7901 4.15216C12.826 4.72571 12.88 5.89237 12.3602 7.12596C10.2462 12.1422 5.80376 11.9271 5.80376 11.9271C3.40308 11.963 1.82629 10.7449 1.82629 10.7449C4.62117 10.8165 5.48096 9.67008 5.48096 9.67008C3.40308 9.34771 3.08029 7.87866 3.08029 7.87866L4.26267 7.87866C2.04114 7.16209 2.25619 5.33497 2.25619 5.33497C2.75834 5.69304 3.36717 5.58551 3.36717 5.58551C1.50392 4.29581 2.57878 2.18181 2.57878 2.18181Z" id="path_1" />
    <clipPath id="mask_1">
      <use xlink:href="#path_1" />
    </clipPath>
  </defs>
  <path d="M9.211 0.114796C10.5075 -0.140114 11.6718 0.0448076 12.6524 0.518066C12.7059 0.543873 12.7575 0.56989 12.8074 0.596013L13.7683 0.207146C14.7579 -0.193344 15.8038 0.644332 15.6299 1.69698C16.1011 2.21467 16.1759 3.07967 15.539 3.64935L14.5535 4.53091C14.5656 5.61489 14.4169 6.58677 13.9604 7.6701C13.1466 9.60112 11.9797 11.0534 10.552 12.0636C9.54287 12.7776 8.46317 13.2309 7.37506 13.4749C6.67176 13.6326 6.07512 13.6818 5.63612 13.6708C4.29601 13.686 3.06162 13.4025 1.96028 12.9204C1.30499 12.6336 0.82359 12.3372 0.534289 12.1137C-0.511581 11.3058 0.0838452 9.63153 1.40501 9.66538C1.65863 9.67188 1.89619 9.66816 2.11837 9.65527C1.69768 9.15649 1.47438 8.65494 1.38369 8.24222C1.35219 8.09888 1.34433 7.95683 1.3572 7.81967C1.26989 7.71434 1.18851 7.60505 1.11307 7.49199C0.578511 6.69082 0.420788 5.8672 0.465062 5.16395C0.470173 5.09452 0.470173 5.09452 0.474776 5.05295C0.498818 4.84869 0.56444 4.66432 0.660803 4.50463C0.377714 3.60281 0.441976 2.69596 0.708677 1.84216C0.79542 1.56446 0.886741 1.34727 0.960851 1.20151C1.40241 0.333057 2.58481 0.192109 3.21815 0.932432C4.21534 2.09808 5.20031 2.79114 6.13971 3.12697C6.25625 3.16864 6.36821 3.20364 6.47532 3.23265C6.77435 1.34515 8.01677 0.216253 9.211 0.114796ZM2.57878 2.18181C5.33752 5.40658 7.80981 4.83324 7.80981 4.83324C7.52335 2.21772 9.27865 1.85944 9.27886 1.85944C11.1959 1.44739 12.3245 2.46848 12.3245 2.46848L13.8295 1.85944C13.7217 2.50439 12.7901 3.18505 12.7901 3.18505L14.1516 2.93429L12.7901 4.15216C12.826 4.72571 12.88 5.89237 12.3602 7.12596C10.2462 12.1422 5.80376 11.9271 5.80376 11.9271C3.40308 11.963 1.82629 10.7449 1.82629 10.7449C4.62117 10.8165 5.48096 9.67008 5.48096 9.67008C3.40308 9.34771 3.08029 7.87866 3.08029 7.87866L4.26267 7.87866C2.04114 7.16209 2.25619 5.33497 2.25619 5.33497C2.75834 5.69304 3.36717 5.58551 3.36717 5.58551C1.50392 4.29581 2.57878 2.18181 2.57878 2.18181Z" id="icon/social/twitter_24px" fill="#FFFFFF" fill-rule="evenodd" stroke="none" />
</svg>